<?xml version="1.0" encoding="utf-8" standalone="no"?>
<!DOCTYPE svg PUBLIC "-//W3C//DTD SVG 1.1//EN"
  "http://www.w3.org/Graphics/SVG/1.1/DTD/svg11.dtd">
<svg xmlns:xlink="http://www.w3.org/1999/xlink" width="404.598125pt" height="268.827127pt" viewBox="0 0 404.598125 268.827127" xmlns="http://www.w3.org/2000/svg" version="1.1">
 <metadata>
  <rdf:RDF xmlns:dc="http://purl.org/dc/elements/1.1/" xmlns:cc="http://creativecommons.org/ns#" xmlns:rdf="http://www.w3.org/1999/02/22-rdf-syntax-ns#">
   <cc:Work>
    <dc:type rdf:resource="http://purl.org/dc/dcmitype/StillImage"/>
    <dc:date>2024-04-22T00:32:13.429704</dc:date>
    <dc:format>image/svg+xml</dc:format>
    <dc:creator>
     <cc:Agent>
      <dc:title>Matplotlib v3.5.2, https://matplotlib.org/</dc:title>
     </cc:Agent>
    </dc:creator>
   </cc:Work>
  </rdf:RDF>
 </metadata>
 <defs>
  <style type="text/css">*{stroke-linejoin: round; stroke-linecap: butt}</style>
 </defs>
 <g id="figure_1">
  <g id="patch_1">
   <path d="M 0 268.827127 
L 404.598125 268.827127 
L 404.598125 0 
L 0 0 
L 0 268.827127 
z
" style="fill: none"/>
  </g>
  <g id="axes_1">
   <g id="patch_2">
    <path d="M 62.598125 218.158125 
L 397.398125 218.158125 
L 397.398125 22.318125 
L 62.598125 22.318125 
z
" style="fill: #ffffff"/>
   </g>
   <g id="matplotlib.axis_1">
    <g id="xtick_1">
     <g id="line2d_1">
      <path d="M 89.06682 218.158125 
L 89.06682 22.318125 
" clip-path="url(#p8497a41f29)" style="fill: none; stroke: #b0b0b0; stroke-width: 0.8; stroke-linecap: square"/>
     </g>
     <g id="line2d_2">
      <defs>
       <path id="m58c0632f16" d="M 0 0 
L 0 3.5 
" style="stroke: #000000; stroke-width: 0.8"/>
      </defs>
      <g>
       <use xlink:href="#m58c0632f16" x="89.06682" y="218.158125" style="stroke: #000000; stroke-width: 0.8"/>
      </g>
     </g>
     <g id="text_1">
      <!-- 02:00 -->
      <g transform="translate(63.069207 246.14794)rotate(-30)scale(0.1 -0.1)">
       <defs>
        <path id="DejaVuSans-30" d="M 2034 4250 
Q 1547 4250 1301 3770 
Q 1056 3291 1056 2328 
Q 1056 1369 1301 889 
Q 1547 409 2034 409 
Q 2525 409 2770 889 
Q 3016 1369 3016 2328 
Q 3016 3291 2770 3770 
Q 2525 4250 2034 4250 
z
M 2034 4750 
Q 2819 4750 3233 4129 
Q 3647 3509 3647 2328 
Q 3647 1150 3233 529 
Q 2819 -91 2034 -91 
Q 1250 -91 836 529 
Q 422 1150 422 2328 
Q 422 3509 836 4129 
Q 1250 4750 2034 4750 
z
" transform="scale(0.015625)"/>
        <path id="DejaVuSans-32" d="M 1228 531 
L 3431 531 
L 3431 0 
L 469 0 
L 469 531 
Q 828 903 1448 1529 
Q 2069 2156 2228 2338 
Q 2531 2678 2651 2914 
Q 2772 3150 2772 3378 
Q 2772 3750 2511 3984 
Q 2250 4219 1831 4219 
Q 1534 4219 1204 4116 
Q 875 4013 500 3803 
L 500 4441 
Q 881 4594 1212 4672 
Q 1544 4750 1819 4750 
Q 2544 4750 2975 4387 
Q 3406 4025 3406 3419 
Q 3406 3131 3298 2873 
Q 3191 2616 2906 2266 
Q 2828 2175 2409 1742 
Q 1991 1309 1228 531 
z
" transform="scale(0.015625)"/>
        <path id="DejaVuSans-3a" d="M 750 794 
L 1409 794 
L 1409 0 
L 750 0 
L 750 794 
z
M 750 3309 
L 1409 3309 
L 1409 2516 
L 750 2516 
L 750 3309 
z
" transform="scale(0.015625)"/>
       </defs>
       <use xlink:href="#DejaVuSans-30"/>
       <use xlink:href="#DejaVuSans-32" x="63.623047"/>
       <use xlink:href="#DejaVuSans-3a" x="127.246094"/>
       <use xlink:href="#DejaVuSans-30" x="160.9375"/>
       <use xlink:href="#DejaVuSans-30" x="224.560547"/>
      </g>
     </g>
    </g>
    <g id="xtick_2">
     <g id="line2d_3">
      <path d="M 122.818361 218.158125 
L 122.818361 22.318125 
" clip-path="url(#p8497a41f29)" style="fill: none; stroke: #b0b0b0; stroke-width: 0.8; stroke-linecap: square"/>
     </g>
     <g id="line2d_4">
      <g>
       <use xlink:href="#m58c0632f16" x="122.818361" y="218.158125" style="stroke: #000000; stroke-width: 0.8"/>
      </g>
     </g>
     <g id="text_2">
      <!-- 02:15 -->
      <g transform="translate(96.820748 246.14794)rotate(-30)scale(0.1 -0.1)">
       <defs>
        <path id="DejaVuSans-31" d="M 794 531 
L 1825 531 
L 1825 4091 
L 703 3866 
L 703 4441 
L 1819 4666 
L 2450 4666 
L 2450 531 
L 3481 531 
L 3481 0 
L 794 0 
L 794 531 
z
" transform="scale(0.015625)"/>
        <path id="DejaVuSans-35" d="M 691 4666 
L 3169 4666 
L 3169 4134 
L 1269 4134 
L 1269 2991 
Q 1406 3038 1543 3061 
Q 1681 3084 1819 3084 
Q 2600 3084 3056 2656 
Q 3513 2228 3513 1497 
Q 3513 744 3044 326 
Q 2575 -91 1722 -91 
Q 1428 -91 1123 -41 
Q 819 9 494 109 
L 494 744 
Q 775 591 1075 516 
Q 1375 441 1709 441 
Q 2250 441 2565 725 
Q 2881 1009 2881 1497 
Q 2881 1984 2565 2268 
Q 2250 2553 1709 2553 
Q 1456 2553 1204 2497 
Q 953 2441 691 2322 
L 691 4666 
z
" transform="scale(0.015625)"/>
       </defs>
       <use xlink:href="#DejaVuSans-30"/>
       <use xlink:href="#DejaVuSans-32" x="63.623047"/>
       <use xlink:href="#DejaVuSans-3a" x="127.246094"/>
       <use xlink:href="#DejaVuSans-31" x="160.9375"/>
       <use xlink:href="#DejaVuSans-35" x="224.560547"/>
      </g>
     </g>
    </g>
    <g id="xtick_3">
     <g id="line2d_5">
      <path d="M 156.569902 218.158125 
L 156.569902 22.318125 
" clip-path="url(#p8497a41f29)" style="fill: none; stroke: #b0b0b0; stroke-width: 0.8; stroke-linecap: square"/>
     </g>
     <g id="line2d_6">
      <g>
       <use xlink:href="#m58c0632f16" x="156.569902" y="218.158125" style="stroke: #000000; stroke-width: 0.8"/>
      </g>
     </g>
     <g id="text_3">
      <!-- 02:30 -->
      <g transform="translate(130.572289 246.14794)rotate(-30)scale(0.1 -0.1)">
       <defs>
        <path id="DejaVuSans-33" d="M 2597 2516 
Q 3050 2419 3304 2112 
Q 3559 1806 3559 1356 
Q 3559 666 3084 287 
Q 2609 -91 1734 -91 
Q 1441 -91 1130 -33 
Q 819 25 488 141 
L 488 750 
Q 750 597 1062 519 
Q 1375 441 1716 441 
Q 2309 441 2620 675 
Q 2931 909 2931 1356 
Q 2931 1769 2642 2001 
Q 2353 2234 1838 2234 
L 1294 2234 
L 1294 2753 
L 1863 2753 
Q 2328 2753 2575 2939 
Q 2822 3125 2822 3475 
Q 2822 3834 2567 4026 
Q 2313 4219 1838 4219 
Q 1578 4219 1281 4162 
Q 984 4106 628 3988 
L 628 4550 
Q 988 4650 1302 4700 
Q 1616 4750 1894 4750 
Q 2613 4750 3031 4423 
Q 3450 4097 3450 3541 
Q 3450 3153 3228 2886 
Q 3006 2619 2597 2516 
z
" transform="scale(0.015625)"/>
       </defs>
       <use xlink:href="#DejaVuSans-30"/>
       <use xlink:href="#DejaVuSans-32" x="63.623047"/>
       <use xlink:href="#DejaVuSans-3a" x="127.246094"/>
       <use xlink:href="#DejaVuSans-33" x="160.9375"/>
       <use xlink:href="#DejaVuSans-30" x="224.560547"/>
      </g>
     </g>
    </g>
    <g id="xtick_4">
     <g id="line2d_7">
      <path d="M 190.321443 218.158125 
L 190.321443 22.318125 
" clip-path="url(#p8497a41f29)" style="fill: none; stroke: #b0b0b0; stroke-width: 0.8; stroke-linecap: square"/>
     </g>
     <g id="line2d_8">
      <g>
       <use xlink:href="#m58c0632f16" x="190.321443" y="218.158125" style="stroke: #000000; stroke-width: 0.8"/>
      </g>
     </g>
     <g id="text_4">
      <!-- 02:45 -->
      <g transform="translate(164.32383 246.14794)rotate(-30)scale(0.1 -0.1)">
       <defs>
        <path id="DejaVuSans-34" d="M 2419 4116 
L 825 1625 
L 2419 1625 
L 2419 4116 
z
M 2253 4666 
L 3047 4666 
L 3047 1625 
L 3713 1625 
L 3713 1100 
L 3047 1100 
L 3047 0 
L 2419 0 
L 2419 1100 
L 313 1100 
L 313 1709 
L 2253 4666 
z
" transform="scale(0.015625)"/>
       </defs>
       <use xlink:href="#DejaVuSans-30"/>
       <use xlink:href="#DejaVuSans-32" x="63.623047"/>
       <use xlink:href="#DejaVuSans-3a" x="127.246094"/>
       <use xlink:href="#DejaVuSans-34" x="160.9375"/>
       <use xlink:href="#DejaVuSans-35" x="224.560547"/>
      </g>
     </g>
    </g>
    <g id="xtick_5">
     <g id="line2d_9">
      <path d="M 224.072984 218.158125 
L 224.072984 22.318125 
" clip-path="url(#p8497a41f29)" style="fill: none; stroke: #b0b0b0; stroke-width: 0.8; stroke-linecap: square"/>
     </g>
     <g id="line2d_10">
      <g>
       <use xlink:href="#m58c0632f16" x="224.072984" y="218.158125" style="stroke: #000000; stroke-width: 0.8"/>
      </g>
     </g>
     <g id="text_5">
      <!-- 03:00 -->
      <g transform="translate(198.07537 246.14794)rotate(-30)scale(0.1 -0.1)">
       <use xlink:href="#DejaVuSans-30"/>
       <use xlink:href="#DejaVuSans-33" x="63.623047"/>
       <use xlink:href="#DejaVuSans-3a" x="127.246094"/>
       <use xlink:href="#DejaVuSans-30" x="160.9375"/>
       <use xlink:href="#DejaVuSans-30" x="224.560547"/>
      </g>
     </g>
    </g>
    <g id="xtick_6">
     <g id="line2d_11">
      <path d="M 257.824525 218.158125 
L 257.824525 22.318125 
" clip-path="url(#p8497a41f29)" style="fill: none; stroke: #b0b0b0; stroke-width: 0.8; stroke-linecap: square"/>
     </g>
     <g id="line2d_12">
      <g>
       <use xlink:href="#m58c0632f16" x="257.824525" y="218.158125" style="stroke: #000000; stroke-width: 0.8"/>
      </g>
     </g>
     <g id="text_6">
      <!-- 03:15 -->
      <g transform="translate(231.826911 246.14794)rotate(-30)scale(0.1 -0.1)">
       <use xlink:href="#DejaVuSans-30"/>
       <use xlink:href="#DejaVuSans-33" x="63.623047"/>
       <use xlink:href="#DejaVuSans-3a" x="127.246094"/>
       <use xlink:href="#DejaVuSans-31" x="160.9375"/>
       <use xlink:href="#DejaVuSans-35" x="224.560547"/>
      </g>
     </g>
    </g>
    <g id="xtick_7">
     <g id="line2d_13">
      <path d="M 291.576066 218.158125 
L 291.576066 22.318125 
" clip-path="url(#p8497a41f29)" style="fill: none; stroke: #b0b0b0; stroke-width: 0.8; stroke-linecap: square"/>
     </g>
     <g id="line2d_14">
      <g>
       <use xlink:href="#m58c0632f16" x="291.576066" y="218.158125" style="stroke: #000000; stroke-width: 0.8"/>
      </g>
     </g>
     <g id="text_7">
      <!-- 03:30 -->
      <g transform="translate(265.578452 246.14794)rotate(-30)scale(0.1 -0.1)">
       <use xlink:href="#DejaVuSans-30"/>
       <use xlink:href="#DejaVuSans-33" x="63.623047"/>
       <use xlink:href="#DejaVuSans-3a" x="127.246094"/>
       <use xlink:href="#DejaVuSans-33" x="160.9375"/>
       <use xlink:href="#DejaVuSans-30" x="224.560547"/>
      </g>
     </g>
    </g>
    <g id="xtick_8">
     <g id="line2d_15">
      <path d="M 325.327606 218.158125 
L 325.327606 22.318125 
" clip-path="url(#p8497a41f29)" style="fill: none; stroke: #b0b0b0; stroke-width: 0.8; stroke-linecap: square"/>
     </g>
     <g id="line2d_16">
      <g>
       <use xlink:href="#m58c0632f16" x="325.327606" y="218.158125" style="stroke: #000000; stroke-width: 0.8"/>
      </g>
     </g>
     <g id="text_8">
      <!-- 03:45 -->
      <g transform="translate(299.329993 246.14794)rotate(-30)scale(0.1 -0.1)">
       <use xlink:href="#DejaVuSans-30"/>
       <use xlink:href="#DejaVuSans-33" x="63.623047"/>
       <use xlink:href="#DejaVuSans-3a" x="127.246094"/>
       <use xlink:href="#DejaVuSans-34" x="160.9375"/>
       <use xlink:href="#DejaVuSans-35" x="224.560547"/>
      </g>
     </g>
    </g>
    <g id="xtick_9">
     <g id="line2d_17">
      <path d="M 359.079147 218.158125 
L 359.079147 22.318125 
" clip-path="url(#p8497a41f29)" style="fill: none; stroke: #b0b0b0; stroke-width: 0.8; stroke-linecap: square"/>
     </g>
     <g id="line2d_18">
      <g>
       <use xlink:href="#m58c0632f16" x="359.079147" y="218.158125" style="stroke: #000000; stroke-width: 0.8"/>
      </g>
     </g>
     <g id="text_9">
      <!-- 04:00 -->
      <g transform="translate(333.081534 246.14794)rotate(-30)scale(0.1 -0.1)">
       <use xlink:href="#DejaVuSans-30"/>
       <use xlink:href="#DejaVuSans-34" x="63.623047"/>
       <use xlink:href="#DejaVuSans-3a" x="127.246094"/>
       <use xlink:href="#DejaVuSans-30" x="160.9375"/>
       <use xlink:href="#DejaVuSans-30" x="224.560547"/>
      </g>
     </g>
    </g>
    <g id="xtick_10">
     <g id="line2d_19">
      <path d="M 392.830688 218.158125 
L 392.830688 22.318125 
" clip-path="url(#p8497a41f29)" style="fill: none; stroke: #b0b0b0; stroke-width: 0.8; stroke-linecap: square"/>
     </g>
     <g id="line2d_20">
      <g>
       <use xlink:href="#m58c0632f16" x="392.830688" y="218.158125" style="stroke: #000000; stroke-width: 0.8"/>
      </g>
     </g>
     <g id="text_10">
      <!-- 04:15 -->
      <g transform="translate(366.833075 246.14794)rotate(-30)scale(0.1 -0.1)">
       <use xlink:href="#DejaVuSans-30"/>
       <use xlink:href="#DejaVuSans-34" x="63.623047"/>
       <use xlink:href="#DejaVuSans-3a" x="127.246094"/>
       <use xlink:href="#DejaVuSans-31" x="160.9375"/>
       <use xlink:href="#DejaVuSans-35" x="224.560547"/>
      </g>
     </g>
    </g>
    <g id="text_11">
     <!-- Time (hour:minute) -->
     <g transform="translate(181.591094 259.54744)scale(0.1 -0.1)">
      <defs>
       <path id="DejaVuSans-54" d="M -19 4666 
L 3928 4666 
L 3928 4134 
L 2272 4134 
L 2272 0 
L 1638 0 
L 1638 4134 
L -19 4134 
L -19 4666 
z
" transform="scale(0.015625)"/>
       <path id="DejaVuSans-69" d="M 603 3500 
L 1178 3500 
L 1178 0 
L 603 0 
L 603 3500 
z
M 603 4863 
L 1178 4863 
L 1178 4134 
L 603 4134 
L 603 4863 
z
" transform="scale(0.015625)"/>
       <path id="DejaVuSans-6d" d="M 3328 2828 
Q 3544 3216 3844 3400 
Q 4144 3584 4550 3584 
Q 5097 3584 5394 3201 
Q 5691 2819 5691 2113 
L 5691 0 
L 5113 0 
L 5113 2094 
Q 5113 2597 4934 2840 
Q 4756 3084 4391 3084 
Q 3944 3084 3684 2787 
Q 3425 2491 3425 1978 
L 3425 0 
L 2847 0 
L 2847 2094 
Q 2847 2600 2669 2842 
Q 2491 3084 2119 3084 
Q 1678 3084 1418 2786 
Q 1159 2488 1159 1978 
L 1159 0 
L 581 0 
L 581 3500 
L 1159 3500 
L 1159 2956 
Q 1356 3278 1631 3431 
Q 1906 3584 2284 3584 
Q 2666 3584 2933 3390 
Q 3200 3197 3328 2828 
z
" transform="scale(0.015625)"/>
       <path id="DejaVuSans-65" d="M 3597 1894 
L 3597 1613 
L 953 1613 
Q 991 1019 1311 708 
Q 1631 397 2203 397 
Q 2534 397 2845 478 
Q 3156 559 3463 722 
L 3463 178 
Q 3153 47 2828 -22 
Q 2503 -91 2169 -91 
Q 1331 -91 842 396 
Q 353 884 353 1716 
Q 353 2575 817 3079 
Q 1281 3584 2069 3584 
Q 2775 3584 3186 3129 
Q 3597 2675 3597 1894 
z
M 3022 2063 
Q 3016 2534 2758 2815 
Q 2500 3097 2075 3097 
Q 1594 3097 1305 2825 
Q 1016 2553 972 2059 
L 3022 2063 
z
" transform="scale(0.015625)"/>
       <path id="DejaVuSans-20" transform="scale(0.015625)"/>
       <path id="DejaVuSans-28" d="M 1984 4856 
Q 1566 4138 1362 3434 
Q 1159 2731 1159 2009 
Q 1159 1288 1364 580 
Q 1569 -128 1984 -844 
L 1484 -844 
Q 1016 -109 783 600 
Q 550 1309 550 2009 
Q 550 2706 781 3412 
Q 1013 4119 1484 4856 
L 1984 4856 
z
" transform="scale(0.015625)"/>
       <path id="DejaVuSans-68" d="M 3513 2113 
L 3513 0 
L 2938 0 
L 2938 2094 
Q 2938 2591 2744 2837 
Q 2550 3084 2163 3084 
Q 1697 3084 1428 2787 
Q 1159 2491 1159 1978 
L 1159 0 
L 581 0 
L 581 4863 
L 1159 4863 
L 1159 2956 
Q 1366 3272 1645 3428 
Q 1925 3584 2291 3584 
Q 2894 3584 3203 3211 
Q 3513 2838 3513 2113 
z
" transform="scale(0.015625)"/>
       <path id="DejaVuSans-6f" d="M 1959 3097 
Q 1497 3097 1228 2736 
Q 959 2375 959 1747 
Q 959 1119 1226 758 
Q 1494 397 1959 397 
Q 2419 397 2687 759 
Q 2956 1122 2956 1747 
Q 2956 2369 2687 2733 
Q 2419 3097 1959 3097 
z
M 1959 3584 
Q 2709 3584 3137 3096 
Q 3566 2609 3566 1747 
Q 3566 888 3137 398 
Q 2709 -91 1959 -91 
Q 1206 -91 779 398 
Q 353 888 353 1747 
Q 353 2609 779 3096 
Q 1206 3584 1959 3584 
z
" transform="scale(0.015625)"/>
       <path id="DejaVuSans-75" d="M 544 1381 
L 544 3500 
L 1119 3500 
L 1119 1403 
Q 1119 906 1312 657 
Q 1506 409 1894 409 
Q 2359 409 2629 706 
Q 2900 1003 2900 1516 
L 2900 3500 
L 3475 3500 
L 3475 0 
L 2900 0 
L 2900 538 
Q 2691 219 2414 64 
Q 2138 -91 1772 -91 
Q 1169 -91 856 284 
Q 544 659 544 1381 
z
M 1991 3584 
L 1991 3584 
z
" transform="scale(0.015625)"/>
       <path id="DejaVuSans-72" d="M 2631 2963 
Q 2534 3019 2420 3045 
Q 2306 3072 2169 3072 
Q 1681 3072 1420 2755 
Q 1159 2438 1159 1844 
L 1159 0 
L 581 0 
L 581 3500 
L 1159 3500 
L 1159 2956 
Q 1341 3275 1631 3429 
Q 1922 3584 2338 3584 
Q 2397 3584 2469 3576 
Q 2541 3569 2628 3553 
L 2631 2963 
z
" transform="scale(0.015625)"/>
       <path id="DejaVuSans-6e" d="M 3513 2113 
L 3513 0 
L 2938 0 
L 2938 2094 
Q 2938 2591 2744 2837 
Q 2550 3084 2163 3084 
Q 1697 3084 1428 2787 
Q 1159 2491 1159 1978 
L 1159 0 
L 581 0 
L 581 3500 
L 1159 3500 
L 1159 2956 
Q 1366 3272 1645 3428 
Q 1925 3584 2291 3584 
Q 2894 3584 3203 3211 
Q 3513 2838 3513 2113 
z
" transform="scale(0.015625)"/>
       <path id="DejaVuSans-74" d="M 1172 4494 
L 1172 3500 
L 2356 3500 
L 2356 3053 
L 1172 3053 
L 1172 1153 
Q 1172 725 1289 603 
Q 1406 481 1766 481 
L 2356 481 
L 2356 0 
L 1766 0 
Q 1100 0 847 248 
Q 594 497 594 1153 
L 594 3053 
L 172 3053 
L 172 3500 
L 594 3500 
L 594 4494 
L 1172 4494 
z
" transform="scale(0.015625)"/>
       <path id="DejaVuSans-29" d="M 513 4856 
L 1013 4856 
Q 1481 4119 1714 3412 
Q 1947 2706 1947 2009 
Q 1947 1309 1714 600 
Q 1481 -109 1013 -844 
L 513 -844 
Q 928 -128 1133 580 
Q 1338 1288 1338 2009 
Q 1338 2731 1133 3434 
Q 928 4138 513 4856 
z
" transform="scale(0.015625)"/>
      </defs>
      <use xlink:href="#DejaVuSans-54"/>
      <use xlink:href="#DejaVuSans-69" x="57.958984"/>
      <use xlink:href="#DejaVuSans-6d" x="85.742188"/>
      <use xlink:href="#DejaVuSans-65" x="183.154297"/>
      <use xlink:href="#DejaVuSans-20" x="244.677734"/>
      <use xlink:href="#DejaVuSans-28" x="276.464844"/>
      <use xlink:href="#DejaVuSans-68" x="315.478516"/>
      <use xlink:href="#DejaVuSans-6f" x="378.857422"/>
      <use xlink:href="#DejaVuSans-75" x="440.039062"/>
      <use xlink:href="#DejaVuSans-72" x="503.417969"/>
      <use xlink:href="#DejaVuSans-3a" x="542.78125"/>
      <use xlink:href="#DejaVuSans-6d" x="576.472656"/>
      <use xlink:href="#DejaVuSans-69" x="673.884766"/>
      <use xlink:href="#DejaVuSans-6e" x="701.667969"/>
      <use xlink:href="#DejaVuSans-75" x="765.046875"/>
      <use xlink:href="#DejaVuSans-74" x="828.425781"/>
      <use xlink:href="#DejaVuSans-65" x="867.634766"/>
      <use xlink:href="#DejaVuSans-29" x="929.158203"/>
     </g>
    </g>
   </g>
   <g id="matplotlib.axis_2">
    <g id="ytick_1">
     <g id="line2d_21">
      <path d="M 62.598125 218.158125 
L 397.398125 218.158125 
" clip-path="url(#p8497a41f29)" style="fill: none; stroke: #b0b0b0; stroke-width: 0.8; stroke-linecap: square"/>
     </g>
     <g id="line2d_22">
      <defs>
       <path id="mb8587f390a" d="M 0 0 
L -3.5 0 
" style="stroke: #000000; stroke-width: 0.8"/>
      </defs>
      <g>
       <use xlink:href="#mb8587f390a" x="62.598125" y="218.158125" style="stroke: #000000; stroke-width: 0.8"/>
      </g>
     </g>
     <g id="text_12">
      <!-- $\mathdefault{10^{-4}}$ -->
      <g transform="translate(32.098125 221.957344)scale(0.1 -0.1)">
       <defs>
        <path id="DejaVuSans-2212" d="M 678 2272 
L 4684 2272 
L 4684 1741 
L 678 1741 
L 678 2272 
z
" transform="scale(0.015625)"/>
       </defs>
       <use xlink:href="#DejaVuSans-31" transform="translate(0 0.684375)"/>
       <use xlink:href="#DejaVuSans-30" transform="translate(63.623047 0.684375)"/>
       <use xlink:href="#DejaVuSans-2212" transform="translate(128.203125 38.965625)scale(0.7)"/>
       <use xlink:href="#DejaVuSans-34" transform="translate(186.855469 38.965625)scale(0.7)"/>
      </g>
     </g>
    </g>
    <g id="ytick_2">
     <g id="line2d_23">
      <path d="M 62.598125 182.550852 
L 397.398125 182.550852 
" clip-path="url(#p8497a41f29)" style="fill: none; stroke: #b0b0b0; stroke-width: 0.8; stroke-linecap: square"/>
     </g>
     <g id="line2d_24">
      <g>
       <use xlink:href="#mb8587f390a" x="62.598125" y="182.550852" style="stroke: #000000; stroke-width: 0.8"/>
      </g>
     </g>
     <g id="text_13">
      <!-- $\mathdefault{10^{-2}}$ -->
      <g transform="translate(32.098125 186.350071)scale(0.1 -0.1)">
       <use xlink:href="#DejaVuSans-31" transform="translate(0 0.765625)"/>
       <use xlink:href="#DejaVuSans-30" transform="translate(63.623047 0.765625)"/>
       <use xlink:href="#DejaVuSans-2212" transform="translate(128.203125 39.046875)scale(0.7)"/>
       <use xlink:href="#DejaVuSans-32" transform="translate(186.855469 39.046875)scale(0.7)"/>
      </g>
     </g>
    </g>
    <g id="ytick_3">
     <g id="line2d_25">
      <path d="M 62.598125 146.94358 
L 397.398125 146.94358 
" clip-path="url(#p8497a41f29)" style="fill: none; stroke: #b0b0b0; stroke-width: 0.8; stroke-linecap: square"/>
     </g>
     <g id="line2d_26">
      <g>
       <use xlink:href="#mb8587f390a" x="62.598125" y="146.94358" style="stroke: #000000; stroke-width: 0.8"/>
      </g>
     </g>
     <g id="text_14">
      <!-- $\mathdefault{10^{0}}$ -->
      <g transform="translate(37.998125 150.742798)scale(0.1 -0.1)">
       <use xlink:href="#DejaVuSans-31" transform="translate(0 0.765625)"/>
       <use xlink:href="#DejaVuSans-30" transform="translate(63.623047 0.765625)"/>
       <use xlink:href="#DejaVuSans-30" transform="translate(128.203125 39.046875)scale(0.7)"/>
      </g>
     </g>
    </g>
    <g id="ytick_4">
     <g id="line2d_27">
      <path d="M 62.598125 111.336307 
L 397.398125 111.336307 
" clip-path="url(#p8497a41f29)" style="fill: none; stroke: #b0b0b0; stroke-width: 0.8; stroke-linecap: square"/>
     </g>
     <g id="line2d_28">
      <g>
       <use xlink:href="#mb8587f390a" x="62.598125" y="111.336307" style="stroke: #000000; stroke-width: 0.8"/>
      </g>
     </g>
     <g id="text_15">
      <!-- $\mathdefault{10^{2}}$ -->
      <g transform="translate(37.998125 115.135526)scale(0.1 -0.1)">
       <use xlink:href="#DejaVuSans-31" transform="translate(0 0.765625)"/>
       <use xlink:href="#DejaVuSans-30" transform="translate(63.623047 0.765625)"/>
       <use xlink:href="#DejaVuSans-32" transform="translate(128.203125 39.046875)scale(0.7)"/>
      </g>
     </g>
    </g>
    <g id="ytick_5">
     <g id="line2d_29">
      <path d="M 62.598125 75.729034 
L 397.398125 75.729034 
" clip-path="url(#p8497a41f29)" style="fill: none; stroke: #b0b0b0; stroke-width: 0.8; stroke-linecap: square"/>
     </g>
     <g id="line2d_30">
      <g>
       <use xlink:href="#mb8587f390a" x="62.598125" y="75.729034" style="stroke: #000000; stroke-width: 0.8"/>
      </g>
     </g>
     <g id="text_16">
      <!-- $\mathdefault{10^{4}}$ -->
      <g transform="translate(37.998125 79.528253)scale(0.1 -0.1)">
       <use xlink:href="#DejaVuSans-31" transform="translate(0 0.684375)"/>
       <use xlink:href="#DejaVuSans-30" transform="translate(63.623047 0.684375)"/>
       <use xlink:href="#DejaVuSans-34" transform="translate(128.203125 38.965625)scale(0.7)"/>
      </g>
     </g>
    </g>
    <g id="ytick_6">
     <g id="line2d_31">
      <path d="M 62.598125 40.121761 
L 397.398125 40.121761 
" clip-path="url(#p8497a41f29)" style="fill: none; stroke: #b0b0b0; stroke-width: 0.8; stroke-linecap: square"/>
     </g>
     <g id="line2d_32">
      <g>
       <use xlink:href="#mb8587f390a" x="62.598125" y="40.121761" style="stroke: #000000; stroke-width: 0.8"/>
      </g>
     </g>
     <g id="text_17">
      <!-- $\mathdefault{10^{6}}$ -->
      <g transform="translate(37.998125 43.92098)scale(0.1 -0.1)">
       <defs>
        <path id="DejaVuSans-36" d="M 2113 2584 
Q 1688 2584 1439 2293 
Q 1191 2003 1191 1497 
Q 1191 994 1439 701 
Q 1688 409 2113 409 
Q 2538 409 2786 701 
Q 3034 994 3034 1497 
Q 3034 2003 2786 2293 
Q 2538 2584 2113 2584 
z
M 3366 4563 
L 3366 3988 
Q 3128 4100 2886 4159 
Q 2644 4219 2406 4219 
Q 1781 4219 1451 3797 
Q 1122 3375 1075 2522 
Q 1259 2794 1537 2939 
Q 1816 3084 2150 3084 
Q 2853 3084 3261 2657 
Q 3669 2231 3669 1497 
Q 3669 778 3244 343 
Q 2819 -91 2113 -91 
Q 1303 -91 875 529 
Q 447 1150 447 2328 
Q 447 3434 972 4092 
Q 1497 4750 2381 4750 
Q 2619 4750 2861 4703 
Q 3103 4656 3366 4563 
z
" transform="scale(0.015625)"/>
       </defs>
       <use xlink:href="#DejaVuSans-31" transform="translate(0 0.765625)"/>
       <use xlink:href="#DejaVuSans-30" transform="translate(63.623047 0.765625)"/>
       <use xlink:href="#DejaVuSans-36" transform="translate(128.203125 39.046875)scale(0.7)"/>
      </g>
     </g>
    </g>
    <g id="text_18">
     <!-- Effective dose rate -->
     <g transform="translate(14.798438 167.377969)rotate(-90)scale(0.1 -0.1)">
      <defs>
       <path id="DejaVuSans-45" d="M 628 4666 
L 3578 4666 
L 3578 4134 
L 1259 4134 
L 1259 2753 
L 3481 2753 
L 3481 2222 
L 1259 2222 
L 1259 531 
L 3634 531 
L 3634 0 
L 628 0 
L 628 4666 
z
" transform="scale(0.015625)"/>
       <path id="DejaVuSans-66" d="M 2375 4863 
L 2375 4384 
L 1825 4384 
Q 1516 4384 1395 4259 
Q 1275 4134 1275 3809 
L 1275 3500 
L 2222 3500 
L 2222 3053 
L 1275 3053 
L 1275 0 
L 697 0 
L 697 3053 
L 147 3053 
L 147 3500 
L 697 3500 
L 697 3744 
Q 697 4328 969 4595 
Q 1241 4863 1831 4863 
L 2375 4863 
z
" transform="scale(0.015625)"/>
       <path id="DejaVuSans-63" d="M 3122 3366 
L 3122 2828 
Q 2878 2963 2633 3030 
Q 2388 3097 2138 3097 
Q 1578 3097 1268 2742 
Q 959 2388 959 1747 
Q 959 1106 1268 751 
Q 1578 397 2138 397 
Q 2388 397 2633 464 
Q 2878 531 3122 666 
L 3122 134 
Q 2881 22 2623 -34 
Q 2366 -91 2075 -91 
Q 1284 -91 818 406 
Q 353 903 353 1747 
Q 353 2603 823 3093 
Q 1294 3584 2113 3584 
Q 2378 3584 2631 3529 
Q 2884 3475 3122 3366 
z
" transform="scale(0.015625)"/>
       <path id="DejaVuSans-76" d="M 191 3500 
L 800 3500 
L 1894 563 
L 2988 3500 
L 3597 3500 
L 2284 0 
L 1503 0 
L 191 3500 
z
" transform="scale(0.015625)"/>
       <path id="DejaVuSans-64" d="M 2906 2969 
L 2906 4863 
L 3481 4863 
L 3481 0 
L 2906 0 
L 2906 525 
Q 2725 213 2448 61 
Q 2172 -91 1784 -91 
Q 1150 -91 751 415 
Q 353 922 353 1747 
Q 353 2572 751 3078 
Q 1150 3584 1784 3584 
Q 2172 3584 2448 3432 
Q 2725 3281 2906 2969 
z
M 947 1747 
Q 947 1113 1208 752 
Q 1469 391 1925 391 
Q 2381 391 2643 752 
Q 2906 1113 2906 1747 
Q 2906 2381 2643 2742 
Q 2381 3103 1925 3103 
Q 1469 3103 1208 2742 
Q 947 2381 947 1747 
z
" transform="scale(0.015625)"/>
       <path id="DejaVuSans-73" d="M 2834 3397 
L 2834 2853 
Q 2591 2978 2328 3040 
Q 2066 3103 1784 3103 
Q 1356 3103 1142 2972 
Q 928 2841 928 2578 
Q 928 2378 1081 2264 
Q 1234 2150 1697 2047 
L 1894 2003 
Q 2506 1872 2764 1633 
Q 3022 1394 3022 966 
Q 3022 478 2636 193 
Q 2250 -91 1575 -91 
Q 1294 -91 989 -36 
Q 684 19 347 128 
L 347 722 
Q 666 556 975 473 
Q 1284 391 1588 391 
Q 1994 391 2212 530 
Q 2431 669 2431 922 
Q 2431 1156 2273 1281 
Q 2116 1406 1581 1522 
L 1381 1569 
Q 847 1681 609 1914 
Q 372 2147 372 2553 
Q 372 3047 722 3315 
Q 1072 3584 1716 3584 
Q 2034 3584 2315 3537 
Q 2597 3491 2834 3397 
z
" transform="scale(0.015625)"/>
       <path id="DejaVuSans-61" d="M 2194 1759 
Q 1497 1759 1228 1600 
Q 959 1441 959 1056 
Q 959 750 1161 570 
Q 1363 391 1709 391 
Q 2188 391 2477 730 
Q 2766 1069 2766 1631 
L 2766 1759 
L 2194 1759 
z
M 3341 1997 
L 3341 0 
L 2766 0 
L 2766 531 
Q 2569 213 2275 61 
Q 1981 -91 1556 -91 
Q 1019 -91 701 211 
Q 384 513 384 1019 
Q 384 1609 779 1909 
Q 1175 2209 1959 2209 
L 2766 2209 
L 2766 2266 
Q 2766 2663 2505 2880 
Q 2244 3097 1772 3097 
Q 1472 3097 1187 3025 
Q 903 2953 641 2809 
L 641 3341 
Q 956 3463 1253 3523 
Q 1550 3584 1831 3584 
Q 2591 3584 2966 3190 
Q 3341 2797 3341 1997 
z
" transform="scale(0.015625)"/>
      </defs>
      <use xlink:href="#DejaVuSans-45"/>
      <use xlink:href="#DejaVuSans-66" x="63.183594"/>
      <use xlink:href="#DejaVuSans-66" x="98.388672"/>
      <use xlink:href="#DejaVuSans-65" x="133.59375"/>
      <use xlink:href="#DejaVuSans-63" x="195.117188"/>
      <use xlink:href="#DejaVuSans-74" x="250.097656"/>
      <use xlink:href="#DejaVuSans-69" x="289.306641"/>
      <use xlink:href="#DejaVuSans-76" x="317.089844"/>
      <use xlink:href="#DejaVuSans-65" x="376.269531"/>
      <use xlink:href="#DejaVuSans-20" x="437.792969"/>
      <use xlink:href="#DejaVuSans-64" x="469.580078"/>
      <use xlink:href="#DejaVuSans-6f" x="533.056641"/>
      <use xlink:href="#DejaVuSans-73" x="594.238281"/>
      <use xlink:href="#DejaVuSans-65" x="646.337891"/>
      <use xlink:href="#DejaVuSans-20" x="707.861328"/>
      <use xlink:href="#DejaVuSans-72" x="739.648438"/>
      <use xlink:href="#DejaVuSans-61" x="780.761719"/>
      <use xlink:href="#DejaVuSans-74" x="842.041016"/>
      <use xlink:href="#DejaVuSans-65" x="881.25"/>
     </g>
     <!-- ($\mu Sv / hr$) -->
     <g transform="translate(25.998125 140.388125)rotate(-90)scale(0.1 -0.1)">
      <defs>
       <path id="DejaVuSans-Oblique-3bc" d="M -84 -1331 
L 856 3500 
L 1434 3500 
L 1009 1322 
Q 997 1256 987 1175 
Q 978 1094 978 1013 
Q 978 722 1161 565 
Q 1344 409 1684 409 
Q 2147 409 2431 671 
Q 2716 934 2816 1459 
L 3213 3500 
L 3788 3500 
L 3266 809 
Q 3253 750 3248 706 
Q 3244 663 3244 628 
Q 3244 531 3283 486 
Q 3322 441 3406 441 
Q 3438 441 3492 456 
Q 3547 472 3647 513 
L 3559 50 
Q 3422 -19 3297 -55 
Q 3172 -91 3053 -91 
Q 2847 -91 2730 40 
Q 2613 172 2613 403 
Q 2438 153 2195 31 
Q 1953 -91 1625 -91 
Q 1334 -91 1117 43 
Q 900 178 831 397 
L 494 -1331 
L -84 -1331 
z
" transform="scale(0.015625)"/>
       <path id="DejaVuSans-Oblique-53" d="M 3859 4513 
L 3738 3897 
Q 3422 4066 3111 4152 
Q 2800 4238 2509 4238 
Q 1944 4238 1609 3991 
Q 1275 3744 1275 3334 
Q 1275 3109 1398 2989 
Q 1522 2869 2034 2731 
L 2413 2638 
Q 3053 2472 3303 2217 
Q 3553 1963 3553 1503 
Q 3553 797 2998 353 
Q 2444 -91 1538 -91 
Q 1166 -91 791 -17 
Q 416 56 38 206 
L 166 856 
Q 513 641 861 531 
Q 1209 422 1556 422 
Q 2147 422 2503 684 
Q 2859 947 2859 1369 
Q 2859 1650 2717 1795 
Q 2575 1941 2106 2059 
L 1728 2156 
Q 1081 2325 845 2545 
Q 609 2766 609 3163 
Q 609 3859 1145 4304 
Q 1681 4750 2541 4750 
Q 2875 4750 3203 4690 
Q 3531 4631 3859 4513 
z
" transform="scale(0.015625)"/>
       <path id="DejaVuSans-Oblique-76" d="M 459 3500 
L 1069 3500 
L 1581 525 
L 3256 3500 
L 3866 3500 
L 1875 0 
L 1100 0 
L 459 3500 
z
" transform="scale(0.015625)"/>
       <path id="DejaVuSans-2f" d="M 1625 4666 
L 2156 4666 
L 531 -594 
L 0 -594 
L 1625 4666 
z
" transform="scale(0.015625)"/>
       <path id="DejaVuSans-Oblique-68" d="M 3566 2113 
L 3156 0 
L 2578 0 
L 2988 2091 
Q 3016 2238 3031 2350 
Q 3047 2463 3047 2528 
Q 3047 2791 2881 2937 
Q 2716 3084 2419 3084 
Q 1956 3084 1617 2771 
Q 1278 2459 1178 1941 
L 800 0 
L 225 0 
L 1172 4863 
L 1747 4863 
L 1375 2950 
Q 1594 3244 1934 3414 
Q 2275 3584 2650 3584 
Q 3113 3584 3367 3334 
Q 3622 3084 3622 2631 
Q 3622 2519 3608 2391 
Q 3594 2263 3566 2113 
z
" transform="scale(0.015625)"/>
       <path id="DejaVuSans-Oblique-72" d="M 2853 2969 
Q 2766 3016 2653 3041 
Q 2541 3066 2413 3066 
Q 1953 3066 1609 2717 
Q 1266 2369 1153 1784 
L 800 0 
L 225 0 
L 909 3500 
L 1484 3500 
L 1375 2956 
Q 1603 3259 1920 3421 
Q 2238 3584 2597 3584 
Q 2691 3584 2781 3573 
Q 2872 3563 2963 3538 
L 2853 2969 
z
" transform="scale(0.015625)"/>
      </defs>
      <use xlink:href="#DejaVuSans-28" transform="translate(0 0.015625)"/>
      <use xlink:href="#DejaVuSans-Oblique-3bc" transform="translate(39.013672 0.015625)"/>
      <use xlink:href="#DejaVuSans-Oblique-53" transform="translate(102.636719 0.015625)"/>
      <use xlink:href="#DejaVuSans-Oblique-76" transform="translate(166.113281 0.015625)"/>
      <use xlink:href="#DejaVuSans-2f" transform="translate(225.292969 0.015625)"/>
      <use xlink:href="#DejaVuSans-Oblique-68" transform="translate(258.984375 0.015625)"/>
      <use xlink:href="#DejaVuSans-Oblique-72" transform="translate(322.363281 0.015625)"/>
      <use xlink:href="#DejaVuSans-29" transform="translate(363.476562 0.015625)"/>
     </g>
    </g>
   </g>
   <g id="line2d_33">
    <path d="M 81.798407 125.768 
L 87.218007 123.332366 
L 90.415164 121.64546 
L 98.927761 119.83285 
L 114.598175 118.091058 
L 131.4179 119.521951 
L 142.282358 120.964518 
L 152.97665 122.391317 
L 167.977581 123.526613 
L 186.652535 125.579097 
L 203.568104 126.393646 
L 214.242112 123.404302 
L 229.390868 122.024731 
L 251.162527 122.586975 
L 274.29227 123.845442 
L 293.330013 123.979734 
L 316.466473 124.873186 
L 334.260781 126.358512 
L 352.068188 127.13202 
" clip-path="url(#p8497a41f29)" style="fill: none; stroke-dasharray: 5.55,2.4; stroke-dashoffset: 0; stroke: #1f77b4; stroke-width: 1.5"/>
   </g>
   <g id="line2d_34">
    <path d="M 77.816307 107.173397 
L 89.06682 103.299568 
L 100.317334 104.079784 
L 111.567848 104.155731 
L 122.818361 104.583728 
L 134.068875 105.591279 
L 145.319389 105.928832 
L 156.569902 107.780962 
L 167.820416 108.694015 
L 179.070929 110.43755 
L 190.321443 110.614944 
L 201.571957 110.719048 
L 212.82247 111.206184 
L 224.072984 111.550271 
L 235.323497 111.970129 
L 246.574011 112.416111 
L 257.824525 112.887874 
L 269.075038 113.601575 
L 280.325552 113.67701 
L 291.576066 113.687198 
L 302.826579 114.094696 
L 314.077093 114.504931 
" clip-path="url(#p8497a41f29)" style="fill: none; stroke: #1f77b4; stroke-width: 1.5; stroke-linecap: square"/>
   </g>
   <g id="line2d_35">
    <path d="M 85.546339 137.312343 
L 104.398701 135.104374 
L 123.204683 135.416832 
L 137.029608 137.392274 
L 149.86249 139.473746 
L 166.663254 141.146754 
L 187.422251 142.935551 
L 205.460856 143.101642 
L 218.164635 140.24239 
L 227.651523 139.682546 
L 248.848856 140.709936 
L 270.60259 142.246275 
L 292.372676 142.894028 
L 314.14322 143.516869 
L 330.951032 144.80684 
L 347.757417 146.17432 
L 369.536213 146.348715 
L 381.399733 147.303737 
" clip-path="url(#p8497a41f29)" style="fill: none; stroke-dasharray: 5.55,2.4; stroke-dashoffset: 0; stroke: #ff7f0e; stroke-width: 1.5"/>
   </g>
   <g id="line2d_36">
    <path d="M 77.816307 125.040401 
L 89.06682 120.509324 
L 100.317334 124.188245 
L 111.567848 124.334649 
L 122.818361 124.965589 
L 134.068875 126.801999 
L 145.319389 126.900118 
L 156.569902 129.751366 
L 167.820416 130.765501 
L 179.070929 132.586277 
L 190.321443 132.843609 
L 201.571957 133.00703 
L 212.82247 133.621031 
L 224.072984 133.954433 
L 235.323497 134.426299 
L 246.574011 134.945034 
L 257.824525 135.505217 
L 269.075038 136.304562 
L 280.325552 136.379997 
L 291.576066 136.304541 
L 302.826579 136.957993 
L 314.077093 137.648022 
" clip-path="url(#p8497a41f29)" style="fill: none; stroke: #ff7f0e; stroke-width: 1.5; stroke-linecap: square"/>
   </g>
   <g id="line2d_37">
    <path d="M 90.434137 162.239444 
L 111.837297 161.305184 
L 128.634845 163.152943 
L 140.481199 165.040841 
L 157.271004 167.309363 
L 178.421132 169.364735 
L 197.213533 170.415259 
L 209.289331 169.058061 
L 222.626952 166.769568 
L 244.392911 167.641544 
L 266.140838 169.493456 
L 287.902061 170.622873 
L 309.676578 171.029795 
L 328.458644 172.641913 
L 347.241971 174.185518 
L 364.077621 173.96268 
" clip-path="url(#p8497a41f29)" style="fill: none; stroke-dasharray: 5.55,2.4; stroke-dashoffset: 0; stroke: #2ca02c; stroke-width: 1.5"/>
   </g>
   <g id="line2d_38">
    <path d="M 77.816307 151.926838 
L 89.06682 146.876318 
L 100.317334 151.746134 
L 111.567848 151.917616 
L 122.818361 152.55805 
L 134.068875 154.512827 
L 145.319389 154.506232 
L 156.569902 157.466638 
L 167.820416 158.48431 
L 179.070929 160.30459 
L 190.321443 160.571323 
L 201.571957 160.743282 
L 212.82247 161.38119 
L 224.072984 161.710074 
L 235.323497 162.181363 
L 246.574011 162.709395 
L 257.824525 163.286618 
L 269.075038 164.102215 
L 280.325552 164.177649 
L 291.576066 164.085942 
L 302.826579 164.784826 
L 314.077093 165.522705 
" clip-path="url(#p8497a41f29)" style="fill: none; stroke: #2ca02c; stroke-width: 1.5; stroke-linecap: square"/>
   </g>
   <g id="line2d_39">
    <path d="M 91.703254 179.359244 
L 113.491983 178.993844 
L 130.283876 181.148871 
L 142.12995 183.051994 
L 158.921869 185.205637 
L 180.664753 187.331598 
L 200.455302 187.944288 
L 220.317452 184.665842 
L 242.086621 185.363423 
L 263.833937 187.248553 
L 285.591186 188.593887 
L 307.368453 188.851328 
L 327.1399 190.502085 
L 346.909903 192.231274 
L 365.720278 192.304977 
" clip-path="url(#p8497a41f29)" style="fill: none; stroke-dasharray: 5.55,2.4; stroke-dashoffset: 0; stroke: #d62728; stroke-width: 1.5"/>
   </g>
   <g id="line2d_40">
    <path d="M 77.816307 169.846735 
L 89.06682 164.544722 
L 100.317334 170.120657 
L 111.567848 170.309865 
L 122.818361 170.981031 
L 134.068875 173.103194 
L 145.319389 173.019801 
L 156.569902 176.196948 
L 167.820416 177.235838 
L 179.070929 179.071001 
L 190.321443 179.35817 
L 201.571957 179.546314 
L 212.82247 180.222393 
L 224.072984 180.546796 
L 235.323497 181.028736 
L 246.574011 181.577081 
L 257.824525 182.18259 
L 269.075038 183.025972 
L 280.325552 183.101407 
L 291.576066 182.981914 
L 302.826579 183.761397 
L 314.077093 184.594947 
" clip-path="url(#p8497a41f29)" style="fill: none; stroke: #d62728; stroke-width: 1.5; stroke-linecap: square"/>
   </g>
   <g id="line2d_41">
    <path d="M 91.387537 196.516414 
L 113.173668 196.292192 
L 130.952062 198.642375 
L 143.784864 200.728198 
L 160.578847 202.769729 
L 182.322801 204.837559 
L 203.017524 205.227872 
L 219.334365 202.220246 
L 241.765097 202.836166 
L 263.511649 204.762818 
L 285.269051 206.099848 
L 307.044943 206.43203 
L 326.816967 208.051414 
L 346.586393 209.811976 
L 366.383631 210.061112 
L 382.179943 212.514509 
" clip-path="url(#p8497a41f29)" style="fill: none; stroke-dasharray: 5.55,2.4; stroke-dashoffset: 0; stroke: #9467bd; stroke-width: 1.5"/>
   </g>
   <g id="line2d_42">
    <path d="M 77.816307 184.409773 
L 89.06682 178.921287 
L 100.317334 185.06494 
L 111.567848 185.270229 
L 122.818361 185.967872 
L 134.068875 188.237081 
L 145.319389 188.08019 
L 156.569902 191.428398 
L 167.820416 192.48088 
L 179.070929 194.324117 
L 190.321443 194.625775 
L 201.571957 194.825738 
L 212.82247 195.531291 
L 224.072984 195.851402 
L 235.323497 196.337821 
L 246.574011 196.899675 
L 257.824525 197.526269 
L 269.075038 198.390083 
L 280.325552 198.465518 
L 291.576066 198.325593 
L 302.826579 199.163154 
L 314.077093 200.060018 
" clip-path="url(#p8497a41f29)" style="fill: none; stroke: #9467bd; stroke-width: 1.5; stroke-linecap: square"/>
   </g>
   <g id="patch_3">
    <path d="M 62.598125 218.158125 
L 62.598125 22.318125 
" style="fill: none; stroke: #000000; stroke-width: 0.8; stroke-linejoin: miter; stroke-linecap: square"/>
   </g>
   <g id="patch_4">
    <path d="M 397.398125 218.158125 
L 397.398125 22.318125 
" style="fill: none; stroke: #000000; stroke-width: 0.8; stroke-linejoin: miter; stroke-linecap: square"/>
   </g>
   <g id="patch_5">
    <path d="M 62.598125 218.158125 
L 397.398125 218.158125 
" style="fill: none; stroke: #000000; stroke-width: 0.8; stroke-linejoin: miter; stroke-linecap: square"/>
   </g>
   <g id="patch_6">
    <path d="M 62.598125 22.318125 
L 397.398125 22.318125 
" style="fill: none; stroke: #000000; stroke-width: 0.8; stroke-linejoin: miter; stroke-linecap: square"/>
   </g>
   <g id="text_19">
    <!-- WASAVIES comparison -->
    <g transform="translate(162.232812 16.318125)scale(0.12 -0.12)">
     <defs>
      <path id="DejaVuSans-57" d="M 213 4666 
L 850 4666 
L 1831 722 
L 2809 4666 
L 3519 4666 
L 4500 722 
L 5478 4666 
L 6119 4666 
L 4947 0 
L 4153 0 
L 3169 4050 
L 2175 0 
L 1381 0 
L 213 4666 
z
" transform="scale(0.015625)"/>
      <path id="DejaVuSans-41" d="M 2188 4044 
L 1331 1722 
L 3047 1722 
L 2188 4044 
z
M 1831 4666 
L 2547 4666 
L 4325 0 
L 3669 0 
L 3244 1197 
L 1141 1197 
L 716 0 
L 50 0 
L 1831 4666 
z
" transform="scale(0.015625)"/>
      <path id="DejaVuSans-53" d="M 3425 4513 
L 3425 3897 
Q 3066 4069 2747 4153 
Q 2428 4238 2131 4238 
Q 1616 4238 1336 4038 
Q 1056 3838 1056 3469 
Q 1056 3159 1242 3001 
Q 1428 2844 1947 2747 
L 2328 2669 
Q 3034 2534 3370 2195 
Q 3706 1856 3706 1288 
Q 3706 609 3251 259 
Q 2797 -91 1919 -91 
Q 1588 -91 1214 -16 
Q 841 59 441 206 
L 441 856 
Q 825 641 1194 531 
Q 1563 422 1919 422 
Q 2459 422 2753 634 
Q 3047 847 3047 1241 
Q 3047 1584 2836 1778 
Q 2625 1972 2144 2069 
L 1759 2144 
Q 1053 2284 737 2584 
Q 422 2884 422 3419 
Q 422 4038 858 4394 
Q 1294 4750 2059 4750 
Q 2388 4750 2728 4690 
Q 3069 4631 3425 4513 
z
" transform="scale(0.015625)"/>
      <path id="DejaVuSans-56" d="M 1831 0 
L 50 4666 
L 709 4666 
L 2188 738 
L 3669 4666 
L 4325 4666 
L 2547 0 
L 1831 0 
z
" transform="scale(0.015625)"/>
      <path id="DejaVuSans-49" d="M 628 4666 
L 1259 4666 
L 1259 0 
L 628 0 
L 628 4666 
z
" transform="scale(0.015625)"/>
      <path id="DejaVuSans-70" d="M 1159 525 
L 1159 -1331 
L 581 -1331 
L 581 3500 
L 1159 3500 
L 1159 2969 
Q 1341 3281 1617 3432 
Q 1894 3584 2278 3584 
Q 2916 3584 3314 3078 
Q 3713 2572 3713 1747 
Q 3713 922 3314 415 
Q 2916 -91 2278 -91 
Q 1894 -91 1617 61 
Q 1341 213 1159 525 
z
M 3116 1747 
Q 3116 2381 2855 2742 
Q 2594 3103 2138 3103 
Q 1681 3103 1420 2742 
Q 1159 2381 1159 1747 
Q 1159 1113 1420 752 
Q 1681 391 2138 391 
Q 2594 391 2855 752 
Q 3116 1113 3116 1747 
z
" transform="scale(0.015625)"/>
     </defs>
     <use xlink:href="#DejaVuSans-57"/>
     <use xlink:href="#DejaVuSans-41" x="93.376953"/>
     <use xlink:href="#DejaVuSans-53" x="161.785156"/>
     <use xlink:href="#DejaVuSans-41" x="227.136719"/>
     <use xlink:href="#DejaVuSans-56" x="289.169922"/>
     <use xlink:href="#DejaVuSans-49" x="357.578125"/>
     <use xlink:href="#DejaVuSans-45" x="387.070312"/>
     <use xlink:href="#DejaVuSans-53" x="450.253906"/>
     <use xlink:href="#DejaVuSans-20" x="513.730469"/>
     <use xlink:href="#DejaVuSans-63" x="545.517578"/>
     <use xlink:href="#DejaVuSans-6f" x="600.498047"/>
     <use xlink:href="#DejaVuSans-6d" x="661.679688"/>
     <use xlink:href="#DejaVuSans-70" x="759.091797"/>
     <use xlink:href="#DejaVuSans-61" x="822.568359"/>
     <use xlink:href="#DejaVuSans-72" x="883.847656"/>
     <use xlink:href="#DejaVuSans-69" x="924.960938"/>
     <use xlink:href="#DejaVuSans-73" x="952.744141"/>
     <use xlink:href="#DejaVuSans-6f" x="1004.84375"/>
     <use xlink:href="#DejaVuSans-6e" x="1066.025391"/>
    </g>
   </g>
   <g id="legend_1">
    <g id="patch_7">
     <path d="M 126.209375 87.430625 
L 391.798125 87.430625 
Q 393.398125 87.430625 393.398125 85.830625 
L 393.398125 27.918125 
Q 393.398125 26.318125 391.798125 26.318125 
L 126.209375 26.318125 
Q 124.609375 26.318125 124.609375 27.918125 
L 124.609375 85.830625 
Q 124.609375 87.430625 126.209375 87.430625 
z
" style="fill: #ffffff; opacity: 0.8; stroke: #cccccc; stroke-linejoin: miter"/>
    </g>
    <g id="line2d_43">
     <path d="M 127.809375 32.796875 
L 135.809375 32.796875 
L 143.809375 32.796875 
" style="fill: none; stroke-dasharray: 5.55,2.4; stroke-dashoffset: 0; stroke: #1f77b4; stroke-width: 1.5"/>
    </g>
    <g id="text_20">
     <!-- WASAVIES, 65.62kft/20km -->
     <g transform="translate(150.209375 35.596875)scale(0.08 -0.08)">
      <defs>
       <path id="DejaVuSans-2c" d="M 750 794 
L 1409 794 
L 1409 256 
L 897 -744 
L 494 -744 
L 750 256 
L 750 794 
z
" transform="scale(0.015625)"/>
       <path id="DejaVuSans-2e" d="M 684 794 
L 1344 794 
L 1344 0 
L 684 0 
L 684 794 
z
" transform="scale(0.015625)"/>
       <path id="DejaVuSans-6b" d="M 581 4863 
L 1159 4863 
L 1159 1991 
L 2875 3500 
L 3609 3500 
L 1753 1863 
L 3688 0 
L 2938 0 
L 1159 1709 
L 1159 0 
L 581 0 
L 581 4863 
z
" transform="scale(0.015625)"/>
      </defs>
      <use xlink:href="#DejaVuSans-57"/>
      <use xlink:href="#DejaVuSans-41" x="93.376953"/>
      <use xlink:href="#DejaVuSans-53" x="161.785156"/>
      <use xlink:href="#DejaVuSans-41" x="227.136719"/>
      <use xlink:href="#DejaVuSans-56" x="289.169922"/>
      <use xlink:href="#DejaVuSans-49" x="357.578125"/>
      <use xlink:href="#DejaVuSans-45" x="387.070312"/>
      <use xlink:href="#DejaVuSans-53" x="450.253906"/>
      <use xlink:href="#DejaVuSans-2c" x="513.730469"/>
      <use xlink:href="#DejaVuSans-20" x="545.517578"/>
      <use xlink:href="#DejaVuSans-36" x="577.304688"/>
      <use xlink:href="#DejaVuSans-35" x="640.927734"/>
      <use xlink:href="#DejaVuSans-2e" x="704.550781"/>
      <use xlink:href="#DejaVuSans-36" x="736.337891"/>
      <use xlink:href="#DejaVuSans-32" x="799.960938"/>
      <use xlink:href="#DejaVuSans-6b" x="863.583984"/>
      <use xlink:href="#DejaVuSans-66" x="921.494141"/>
      <use xlink:href="#DejaVuSans-74" x="954.949219"/>
      <use xlink:href="#DejaVuSans-2f" x="994.158203"/>
      <use xlink:href="#DejaVuSans-32" x="1027.849609"/>
      <use xlink:href="#DejaVuSans-30" x="1091.472656"/>
      <use xlink:href="#DejaVuSans-6b" x="1155.095703"/>
      <use xlink:href="#DejaVuSans-6d" x="1213.005859"/>
     </g>
    </g>
    <g id="line2d_44">
     <path d="M 127.809375 44.539375 
L 135.809375 44.539375 
L 143.809375 44.539375 
" style="fill: none; stroke: #1f77b4; stroke-width: 1.5; stroke-linecap: square"/>
    </g>
    <g id="text_21">
     <!-- AniMAIRE, 65.62kft/20km -->
     <g transform="translate(150.209375 47.339375)scale(0.08 -0.08)">
      <defs>
       <path id="DejaVuSans-4d" d="M 628 4666 
L 1569 4666 
L 2759 1491 
L 3956 4666 
L 4897 4666 
L 4897 0 
L 4281 0 
L 4281 4097 
L 3078 897 
L 2444 897 
L 1241 4097 
L 1241 0 
L 628 0 
L 628 4666 
z
" transform="scale(0.015625)"/>
       <path id="DejaVuSans-52" d="M 2841 2188 
Q 3044 2119 3236 1894 
Q 3428 1669 3622 1275 
L 4263 0 
L 3584 0 
L 2988 1197 
Q 2756 1666 2539 1819 
Q 2322 1972 1947 1972 
L 1259 1972 
L 1259 0 
L 628 0 
L 628 4666 
L 2053 4666 
Q 2853 4666 3247 4331 
Q 3641 3997 3641 3322 
Q 3641 2881 3436 2590 
Q 3231 2300 2841 2188 
z
M 1259 4147 
L 1259 2491 
L 2053 2491 
Q 2509 2491 2742 2702 
Q 2975 2913 2975 3322 
Q 2975 3731 2742 3939 
Q 2509 4147 2053 4147 
L 1259 4147 
z
" transform="scale(0.015625)"/>
      </defs>
      <use xlink:href="#DejaVuSans-41"/>
      <use xlink:href="#DejaVuSans-6e" x="68.408203"/>
      <use xlink:href="#DejaVuSans-69" x="131.787109"/>
      <use xlink:href="#DejaVuSans-4d" x="159.570312"/>
      <use xlink:href="#DejaVuSans-41" x="245.849609"/>
      <use xlink:href="#DejaVuSans-49" x="314.257812"/>
      <use xlink:href="#DejaVuSans-52" x="343.75"/>
      <use xlink:href="#DejaVuSans-45" x="413.232422"/>
      <use xlink:href="#DejaVuSans-2c" x="476.416016"/>
      <use xlink:href="#DejaVuSans-20" x="508.203125"/>
      <use xlink:href="#DejaVuSans-36" x="539.990234"/>
      <use xlink:href="#DejaVuSans-35" x="603.613281"/>
      <use xlink:href="#DejaVuSans-2e" x="667.236328"/>
      <use xlink:href="#DejaVuSans-36" x="699.023438"/>
      <use xlink:href="#DejaVuSans-32" x="762.646484"/>
      <use xlink:href="#DejaVuSans-6b" x="826.269531"/>
      <use xlink:href="#DejaVuSans-66" x="884.179688"/>
      <use xlink:href="#DejaVuSans-74" x="917.634766"/>
      <use xlink:href="#DejaVuSans-2f" x="956.84375"/>
      <use xlink:href="#DejaVuSans-32" x="990.535156"/>
      <use xlink:href="#DejaVuSans-30" x="1054.158203"/>
      <use xlink:href="#DejaVuSans-6b" x="1117.78125"/>
      <use xlink:href="#DejaVuSans-6d" x="1175.691406"/>
     </g>
    </g>
    <g id="line2d_45">
     <path d="M 127.809375 56.281875 
L 135.809375 56.281875 
L 143.809375 56.281875 
" style="fill: none; stroke-dasharray: 5.55,2.4; stroke-dashoffset: 0; stroke: #ff7f0e; stroke-width: 1.5"/>
    </g>
    <g id="text_22">
     <!-- WASAVIES, 39.37kft/12km -->
     <g transform="translate(150.209375 59.081875)scale(0.08 -0.08)">
      <defs>
       <path id="DejaVuSans-39" d="M 703 97 
L 703 672 
Q 941 559 1184 500 
Q 1428 441 1663 441 
Q 2288 441 2617 861 
Q 2947 1281 2994 2138 
Q 2813 1869 2534 1725 
Q 2256 1581 1919 1581 
Q 1219 1581 811 2004 
Q 403 2428 403 3163 
Q 403 3881 828 4315 
Q 1253 4750 1959 4750 
Q 2769 4750 3195 4129 
Q 3622 3509 3622 2328 
Q 3622 1225 3098 567 
Q 2575 -91 1691 -91 
Q 1453 -91 1209 -44 
Q 966 3 703 97 
z
M 1959 2075 
Q 2384 2075 2632 2365 
Q 2881 2656 2881 3163 
Q 2881 3666 2632 3958 
Q 2384 4250 1959 4250 
Q 1534 4250 1286 3958 
Q 1038 3666 1038 3163 
Q 1038 2656 1286 2365 
Q 1534 2075 1959 2075 
z
" transform="scale(0.015625)"/>
       <path id="DejaVuSans-37" d="M 525 4666 
L 3525 4666 
L 3525 4397 
L 1831 0 
L 1172 0 
L 2766 4134 
L 525 4134 
L 525 4666 
z
" transform="scale(0.015625)"/>
      </defs>
      <use xlink:href="#DejaVuSans-57"/>
      <use xlink:href="#DejaVuSans-41" x="93.376953"/>
      <use xlink:href="#DejaVuSans-53" x="161.785156"/>
      <use xlink:href="#DejaVuSans-41" x="227.136719"/>
      <use xlink:href="#DejaVuSans-56" x="289.169922"/>
      <use xlink:href="#DejaVuSans-49" x="357.578125"/>
      <use xlink:href="#DejaVuSans-45" x="387.070312"/>
      <use xlink:href="#DejaVuSans-53" x="450.253906"/>
      <use xlink:href="#DejaVuSans-2c" x="513.730469"/>
      <use xlink:href="#DejaVuSans-20" x="545.517578"/>
      <use xlink:href="#DejaVuSans-33" x="577.304688"/>
      <use xlink:href="#DejaVuSans-39" x="640.927734"/>
      <use xlink:href="#DejaVuSans-2e" x="704.550781"/>
      <use xlink:href="#DejaVuSans-33" x="736.337891"/>
      <use xlink:href="#DejaVuSans-37" x="799.960938"/>
      <use xlink:href="#DejaVuSans-6b" x="863.583984"/>
      <use xlink:href="#DejaVuSans-66" x="921.494141"/>
      <use xlink:href="#DejaVuSans-74" x="954.949219"/>
      <use xlink:href="#DejaVuSans-2f" x="994.158203"/>
      <use xlink:href="#DejaVuSans-31" x="1027.849609"/>
      <use xlink:href="#DejaVuSans-32" x="1091.472656"/>
      <use xlink:href="#DejaVuSans-6b" x="1155.095703"/>
      <use xlink:href="#DejaVuSans-6d" x="1213.005859"/>
     </g>
    </g>
    <g id="line2d_46">
     <path d="M 127.809375 68.024375 
L 135.809375 68.024375 
L 143.809375 68.024375 
" style="fill: none; stroke: #ff7f0e; stroke-width: 1.5; stroke-linecap: square"/>
    </g>
    <g id="text_23">
     <!-- AniMAIRE, 39.37kft/12km -->
     <g transform="translate(150.209375 70.824375)scale(0.08 -0.08)">
      <use xlink:href="#DejaVuSans-41"/>
      <use xlink:href="#DejaVuSans-6e" x="68.408203"/>
      <use xlink:href="#DejaVuSans-69" x="131.787109"/>
      <use xlink:href="#DejaVuSans-4d" x="159.570312"/>
      <use xlink:href="#DejaVuSans-41" x="245.849609"/>
      <use xlink:href="#DejaVuSans-49" x="314.257812"/>
      <use xlink:href="#DejaVuSans-52" x="343.75"/>
      <use xlink:href="#DejaVuSans-45" x="413.232422"/>
      <use xlink:href="#DejaVuSans-2c" x="476.416016"/>
      <use xlink:href="#DejaVuSans-20" x="508.203125"/>
      <use xlink:href="#DejaVuSans-33" x="539.990234"/>
      <use xlink:href="#DejaVuSans-39" x="603.613281"/>
      <use xlink:href="#DejaVuSans-2e" x="667.236328"/>
      <use xlink:href="#DejaVuSans-33" x="699.023438"/>
      <use xlink:href="#DejaVuSans-37" x="762.646484"/>
      <use xlink:href="#DejaVuSans-6b" x="826.269531"/>
      <use xlink:href="#DejaVuSans-66" x="884.179688"/>
      <use xlink:href="#DejaVuSans-74" x="917.634766"/>
      <use xlink:href="#DejaVuSans-2f" x="956.84375"/>
      <use xlink:href="#DejaVuSans-31" x="990.535156"/>
      <use xlink:href="#DejaVuSans-32" x="1054.158203"/>
      <use xlink:href="#DejaVuSans-6b" x="1117.78125"/>
      <use xlink:href="#DejaVuSans-6d" x="1175.691406"/>
     </g>
    </g>
    <g id="line2d_47">
     <path d="M 127.809375 79.766875 
L 135.809375 79.766875 
L 143.809375 79.766875 
" style="fill: none; stroke-dasharray: 5.55,2.4; stroke-dashoffset: 0; stroke: #2ca02c; stroke-width: 1.5"/>
    </g>
    <g id="text_24">
     <!-- WASAVIES, 16.40kft/5km -->
     <g transform="translate(150.209375 82.566875)scale(0.08 -0.08)">
      <use xlink:href="#DejaVuSans-57"/>
      <use xlink:href="#DejaVuSans-41" x="93.376953"/>
      <use xlink:href="#DejaVuSans-53" x="161.785156"/>
      <use xlink:href="#DejaVuSans-41" x="227.136719"/>
      <use xlink:href="#DejaVuSans-56" x="289.169922"/>
      <use xlink:href="#DejaVuSans-49" x="357.578125"/>
      <use xlink:href="#DejaVuSans-45" x="387.070312"/>
      <use xlink:href="#DejaVuSans-53" x="450.253906"/>
      <use xlink:href="#DejaVuSans-2c" x="513.730469"/>
      <use xlink:href="#DejaVuSans-20" x="545.517578"/>
      <use xlink:href="#DejaVuSans-31" x="577.304688"/>
      <use xlink:href="#DejaVuSans-36" x="640.927734"/>
      <use xlink:href="#DejaVuSans-2e" x="704.550781"/>
      <use xlink:href="#DejaVuSans-34" x="736.337891"/>
      <use xlink:href="#DejaVuSans-30" x="799.960938"/>
      <use xlink:href="#DejaVuSans-6b" x="863.583984"/>
      <use xlink:href="#DejaVuSans-66" x="921.494141"/>
      <use xlink:href="#DejaVuSans-74" x="954.949219"/>
      <use xlink:href="#DejaVuSans-2f" x="994.158203"/>
      <use xlink:href="#DejaVuSans-35" x="1027.849609"/>
      <use xlink:href="#DejaVuSans-6b" x="1091.472656"/>
      <use xlink:href="#DejaVuSans-6d" x="1149.382812"/>
     </g>
    </g>
    <g id="line2d_48">
     <path d="M 271.041875 32.796875 
L 279.041875 32.796875 
L 287.041875 32.796875 
" style="fill: none; stroke: #2ca02c; stroke-width: 1.5; stroke-linecap: square"/>
    </g>
    <g id="text_25">
     <!-- AniMAIRE, 16.40kft/5km -->
     <g transform="translate(293.441875 35.596875)scale(0.08 -0.08)">
      <use xlink:href="#DejaVuSans-41"/>
      <use xlink:href="#DejaVuSans-6e" x="68.408203"/>
      <use xlink:href="#DejaVuSans-69" x="131.787109"/>
      <use xlink:href="#DejaVuSans-4d" x="159.570312"/>
      <use xlink:href="#DejaVuSans-41" x="245.849609"/>
      <use xlink:href="#DejaVuSans-49" x="314.257812"/>
      <use xlink:href="#DejaVuSans-52" x="343.75"/>
      <use xlink:href="#DejaVuSans-45" x="413.232422"/>
      <use xlink:href="#DejaVuSans-2c" x="476.416016"/>
      <use xlink:href="#DejaVuSans-20" x="508.203125"/>
      <use xlink:href="#DejaVuSans-31" x="539.990234"/>
      <use xlink:href="#DejaVuSans-36" x="603.613281"/>
      <use xlink:href="#DejaVuSans-2e" x="667.236328"/>
      <use xlink:href="#DejaVuSans-34" x="699.023438"/>
      <use xlink:href="#DejaVuSans-30" x="762.646484"/>
      <use xlink:href="#DejaVuSans-6b" x="826.269531"/>
      <use xlink:href="#DejaVuSans-66" x="884.179688"/>
      <use xlink:href="#DejaVuSans-74" x="917.634766"/>
      <use xlink:href="#DejaVuSans-2f" x="956.84375"/>
      <use xlink:href="#DejaVuSans-35" x="990.535156"/>
      <use xlink:href="#DejaVuSans-6b" x="1054.158203"/>
      <use xlink:href="#DejaVuSans-6d" x="1112.068359"/>
     </g>
    </g>
    <g id="line2d_49">
     <path d="M 271.041875 44.539375 
L 279.041875 44.539375 
L 287.041875 44.539375 
" style="fill: none; stroke-dasharray: 5.55,2.4; stroke-dashoffset: 0; stroke: #d62728; stroke-width: 1.5"/>
    </g>
    <g id="text_26">
     <!-- WASAVIES, 6.56kft/2km -->
     <g transform="translate(293.441875 47.339375)scale(0.08 -0.08)">
      <use xlink:href="#DejaVuSans-57"/>
      <use xlink:href="#DejaVuSans-41" x="93.376953"/>
      <use xlink:href="#DejaVuSans-53" x="161.785156"/>
      <use xlink:href="#DejaVuSans-41" x="227.136719"/>
      <use xlink:href="#DejaVuSans-56" x="289.169922"/>
      <use xlink:href="#DejaVuSans-49" x="357.578125"/>
      <use xlink:href="#DejaVuSans-45" x="387.070312"/>
      <use xlink:href="#DejaVuSans-53" x="450.253906"/>
      <use xlink:href="#DejaVuSans-2c" x="513.730469"/>
      <use xlink:href="#DejaVuSans-20" x="545.517578"/>
      <use xlink:href="#DejaVuSans-36" x="577.304688"/>
      <use xlink:href="#DejaVuSans-2e" x="640.927734"/>
      <use xlink:href="#DejaVuSans-35" x="672.714844"/>
      <use xlink:href="#DejaVuSans-36" x="736.337891"/>
      <use xlink:href="#DejaVuSans-6b" x="799.960938"/>
      <use xlink:href="#DejaVuSans-66" x="857.871094"/>
      <use xlink:href="#DejaVuSans-74" x="891.326172"/>
      <use xlink:href="#DejaVuSans-2f" x="930.535156"/>
      <use xlink:href="#DejaVuSans-32" x="964.226562"/>
      <use xlink:href="#DejaVuSans-6b" x="1027.849609"/>
      <use xlink:href="#DejaVuSans-6d" x="1085.759766"/>
     </g>
    </g>
    <g id="line2d_50">
     <path d="M 271.041875 56.281875 
L 279.041875 56.281875 
L 287.041875 56.281875 
" style="fill: none; stroke: #d62728; stroke-width: 1.5; stroke-linecap: square"/>
    </g>
    <g id="text_27">
     <!-- AniMAIRE, 6.56kft/2km -->
     <g transform="translate(293.441875 59.081875)scale(0.08 -0.08)">
      <use xlink:href="#DejaVuSans-41"/>
      <use xlink:href="#DejaVuSans-6e" x="68.408203"/>
      <use xlink:href="#DejaVuSans-69" x="131.787109"/>
      <use xlink:href="#DejaVuSans-4d" x="159.570312"/>
      <use xlink:href="#DejaVuSans-41" x="245.849609"/>
      <use xlink:href="#DejaVuSans-49" x="314.257812"/>
      <use xlink:href="#DejaVuSans-52" x="343.75"/>
      <use xlink:href="#DejaVuSans-45" x="413.232422"/>
      <use xlink:href="#DejaVuSans-2c" x="476.416016"/>
      <use xlink:href="#DejaVuSans-20" x="508.203125"/>
      <use xlink:href="#DejaVuSans-36" x="539.990234"/>
      <use xlink:href="#DejaVuSans-2e" x="603.613281"/>
      <use xlink:href="#DejaVuSans-35" x="635.400391"/>
      <use xlink:href="#DejaVuSans-36" x="699.023438"/>
      <use xlink:href="#DejaVuSans-6b" x="762.646484"/>
      <use xlink:href="#DejaVuSans-66" x="820.556641"/>
      <use xlink:href="#DejaVuSans-74" x="854.011719"/>
      <use xlink:href="#DejaVuSans-2f" x="893.220703"/>
      <use xlink:href="#DejaVuSans-32" x="926.912109"/>
      <use xlink:href="#DejaVuSans-6b" x="990.535156"/>
      <use xlink:href="#DejaVuSans-6d" x="1048.445312"/>
     </g>
    </g>
    <g id="line2d_51">
     <path d="M 271.041875 68.024375 
L 279.041875 68.024375 
L 287.041875 68.024375 
" style="fill: none; stroke-dasharray: 5.55,2.4; stroke-dashoffset: 0; stroke: #9467bd; stroke-width: 1.5"/>
    </g>
    <g id="text_28">
     <!-- WASAVIES, 0.00kft/0km -->
     <g transform="translate(293.441875 70.824375)scale(0.08 -0.08)">
      <use xlink:href="#DejaVuSans-57"/>
      <use xlink:href="#DejaVuSans-41" x="93.376953"/>
      <use xlink:href="#DejaVuSans-53" x="161.785156"/>
      <use xlink:href="#DejaVuSans-41" x="227.136719"/>
      <use xlink:href="#DejaVuSans-56" x="289.169922"/>
      <use xlink:href="#DejaVuSans-49" x="357.578125"/>
      <use xlink:href="#DejaVuSans-45" x="387.070312"/>
      <use xlink:href="#DejaVuSans-53" x="450.253906"/>
      <use xlink:href="#DejaVuSans-2c" x="513.730469"/>
      <use xlink:href="#DejaVuSans-20" x="545.517578"/>
      <use xlink:href="#DejaVuSans-30" x="577.304688"/>
      <use xlink:href="#DejaVuSans-2e" x="640.927734"/>
      <use xlink:href="#DejaVuSans-30" x="672.714844"/>
      <use xlink:href="#DejaVuSans-30" x="736.337891"/>
      <use xlink:href="#DejaVuSans-6b" x="799.960938"/>
      <use xlink:href="#DejaVuSans-66" x="857.871094"/>
      <use xlink:href="#DejaVuSans-74" x="891.326172"/>
      <use xlink:href="#DejaVuSans-2f" x="930.535156"/>
      <use xlink:href="#DejaVuSans-30" x="964.226562"/>
      <use xlink:href="#DejaVuSans-6b" x="1027.849609"/>
      <use xlink:href="#DejaVuSans-6d" x="1085.759766"/>
     </g>
    </g>
    <g id="line2d_52">
     <path d="M 271.041875 79.766875 
L 279.041875 79.766875 
L 287.041875 79.766875 
" style="fill: none; stroke: #9467bd; stroke-width: 1.5; stroke-linecap: square"/>
    </g>
    <g id="text_29">
     <!-- AniMAIRE, 0.00kft/0km -->
     <g transform="translate(293.441875 82.566875)scale(0.08 -0.08)">
      <use xlink:href="#DejaVuSans-41"/>
      <use xlink:href="#DejaVuSans-6e" x="68.408203"/>
      <use xlink:href="#DejaVuSans-69" x="131.787109"/>
      <use xlink:href="#DejaVuSans-4d" x="159.570312"/>
      <use xlink:href="#DejaVuSans-41" x="245.849609"/>
      <use xlink:href="#DejaVuSans-49" x="314.257812"/>
      <use xlink:href="#DejaVuSans-52" x="343.75"/>
      <use xlink:href="#DejaVuSans-45" x="413.232422"/>
      <use xlink:href="#DejaVuSans-2c" x="476.416016"/>
      <use xlink:href="#DejaVuSans-20" x="508.203125"/>
      <use xlink:href="#DejaVuSans-30" x="539.990234"/>
      <use xlink:href="#DejaVuSans-2e" x="603.613281"/>
      <use xlink:href="#DejaVuSans-30" x="635.400391"/>
      <use xlink:href="#DejaVuSans-30" x="699.023438"/>
      <use xlink:href="#DejaVuSans-6b" x="762.646484"/>
      <use xlink:href="#DejaVuSans-66" x="820.556641"/>
      <use xlink:href="#DejaVuSans-74" x="854.011719"/>
      <use xlink:href="#DejaVuSans-2f" x="893.220703"/>
      <use xlink:href="#DejaVuSans-30" x="926.912109"/>
      <use xlink:href="#DejaVuSans-6b" x="990.535156"/>
      <use xlink:href="#DejaVuSans-6d" x="1048.445312"/>
     </g>
    </g>
   </g>
  </g>
 </g>
 <defs>
  <clipPath id="p8497a41f29">
   <rect x="62.598125" y="22.318125" width="334.8" height="195.84"/>
  </clipPath>
 </defs>
</svg>
