<?xml version="1.0" encoding="utf-8" standalone="no"?>
<!DOCTYPE svg PUBLIC "-//W3C//DTD SVG 1.1//EN"
  "http://www.w3.org/Graphics/SVG/1.1/DTD/svg11.dtd">
<svg xmlns:xlink="http://www.w3.org/1999/xlink" width="404.598125pt" height="282.264502pt" viewBox="0 0 404.598125 282.264502" xmlns="http://www.w3.org/2000/svg" version="1.1">
 <metadata>
  <rdf:RDF xmlns:dc="http://purl.org/dc/elements/1.1/" xmlns:cc="http://creativecommons.org/ns#" xmlns:rdf="http://www.w3.org/1999/02/22-rdf-syntax-ns#">
   <cc:Work>
    <dc:type rdf:resource="http://purl.org/dc/dcmitype/StillImage"/>
    <dc:date>2024-04-22T00:32:16.918592</dc:date>
    <dc:format>image/svg+xml</dc:format>
    <dc:creator>
     <cc:Agent>
      <dc:title>Matplotlib v3.5.2, https://matplotlib.org/</dc:title>
     </cc:Agent>
    </dc:creator>
   </cc:Work>
  </rdf:RDF>
 </metadata>
 <defs>
  <style type="text/css">*{stroke-linejoin: round; stroke-linecap: butt}</style>
 </defs>
 <g id="figure_1">
  <g id="patch_1">
   <path d="M 0 282.264502 
L 404.598125 282.264502 
L 404.598125 0 
L 0 0 
L 0 282.264502 
z
" style="fill: none"/>
  </g>
  <g id="axes_1">
   <g id="patch_2">
    <path d="M 62.598125 231.5955 
L 397.398125 231.5955 
L 397.398125 35.7555 
L 62.598125 35.7555 
z
" style="fill: #ffffff"/>
   </g>
   <g id="matplotlib.axis_1">
    <g id="xtick_1">
     <g id="line2d_1">
      <path d="M 89.06682 231.5955 
L 89.06682 35.7555 
" clip-path="url(#pb7cf8ee1d6)" style="fill: none; stroke: #b0b0b0; stroke-width: 0.8; stroke-linecap: square"/>
     </g>
     <g id="line2d_2">
      <defs>
       <path id="mb7fdc51e3a" d="M 0 0 
L 0 3.5 
" style="stroke: #000000; stroke-width: 0.8"/>
      </defs>
      <g>
       <use xlink:href="#mb7fdc51e3a" x="89.06682" y="231.5955" style="stroke: #000000; stroke-width: 0.8"/>
      </g>
     </g>
     <g id="text_1">
      <!-- 02:00 -->
      <g transform="translate(63.069207 259.585315)rotate(-30)scale(0.1 -0.1)">
       <defs>
        <path id="DejaVuSans-30" d="M 2034 4250 
Q 1547 4250 1301 3770 
Q 1056 3291 1056 2328 
Q 1056 1369 1301 889 
Q 1547 409 2034 409 
Q 2525 409 2770 889 
Q 3016 1369 3016 2328 
Q 3016 3291 2770 3770 
Q 2525 4250 2034 4250 
z
M 2034 4750 
Q 2819 4750 3233 4129 
Q 3647 3509 3647 2328 
Q 3647 1150 3233 529 
Q 2819 -91 2034 -91 
Q 1250 -91 836 529 
Q 422 1150 422 2328 
Q 422 3509 836 4129 
Q 1250 4750 2034 4750 
z
" transform="scale(0.015625)"/>
        <path id="DejaVuSans-32" d="M 1228 531 
L 3431 531 
L 3431 0 
L 469 0 
L 469 531 
Q 828 903 1448 1529 
Q 2069 2156 2228 2338 
Q 2531 2678 2651 2914 
Q 2772 3150 2772 3378 
Q 2772 3750 2511 3984 
Q 2250 4219 1831 4219 
Q 1534 4219 1204 4116 
Q 875 4013 500 3803 
L 500 4441 
Q 881 4594 1212 4672 
Q 1544 4750 1819 4750 
Q 2544 4750 2975 4387 
Q 3406 4025 3406 3419 
Q 3406 3131 3298 2873 
Q 3191 2616 2906 2266 
Q 2828 2175 2409 1742 
Q 1991 1309 1228 531 
z
" transform="scale(0.015625)"/>
        <path id="DejaVuSans-3a" d="M 750 794 
L 1409 794 
L 1409 0 
L 750 0 
L 750 794 
z
M 750 3309 
L 1409 3309 
L 1409 2516 
L 750 2516 
L 750 3309 
z
" transform="scale(0.015625)"/>
       </defs>
       <use xlink:href="#DejaVuSans-30"/>
       <use xlink:href="#DejaVuSans-32" x="63.623047"/>
       <use xlink:href="#DejaVuSans-3a" x="127.246094"/>
       <use xlink:href="#DejaVuSans-30" x="160.9375"/>
       <use xlink:href="#DejaVuSans-30" x="224.560547"/>
      </g>
     </g>
    </g>
    <g id="xtick_2">
     <g id="line2d_3">
      <path d="M 122.818361 231.5955 
L 122.818361 35.7555 
" clip-path="url(#pb7cf8ee1d6)" style="fill: none; stroke: #b0b0b0; stroke-width: 0.8; stroke-linecap: square"/>
     </g>
     <g id="line2d_4">
      <g>
       <use xlink:href="#mb7fdc51e3a" x="122.818361" y="231.5955" style="stroke: #000000; stroke-width: 0.8"/>
      </g>
     </g>
     <g id="text_2">
      <!-- 02:15 -->
      <g transform="translate(96.820748 259.585315)rotate(-30)scale(0.1 -0.1)">
       <defs>
        <path id="DejaVuSans-31" d="M 794 531 
L 1825 531 
L 1825 4091 
L 703 3866 
L 703 4441 
L 1819 4666 
L 2450 4666 
L 2450 531 
L 3481 531 
L 3481 0 
L 794 0 
L 794 531 
z
" transform="scale(0.015625)"/>
        <path id="DejaVuSans-35" d="M 691 4666 
L 3169 4666 
L 3169 4134 
L 1269 4134 
L 1269 2991 
Q 1406 3038 1543 3061 
Q 1681 3084 1819 3084 
Q 2600 3084 3056 2656 
Q 3513 2228 3513 1497 
Q 3513 744 3044 326 
Q 2575 -91 1722 -91 
Q 1428 -91 1123 -41 
Q 819 9 494 109 
L 494 744 
Q 775 591 1075 516 
Q 1375 441 1709 441 
Q 2250 441 2565 725 
Q 2881 1009 2881 1497 
Q 2881 1984 2565 2268 
Q 2250 2553 1709 2553 
Q 1456 2553 1204 2497 
Q 953 2441 691 2322 
L 691 4666 
z
" transform="scale(0.015625)"/>
       </defs>
       <use xlink:href="#DejaVuSans-30"/>
       <use xlink:href="#DejaVuSans-32" x="63.623047"/>
       <use xlink:href="#DejaVuSans-3a" x="127.246094"/>
       <use xlink:href="#DejaVuSans-31" x="160.9375"/>
       <use xlink:href="#DejaVuSans-35" x="224.560547"/>
      </g>
     </g>
    </g>
    <g id="xtick_3">
     <g id="line2d_5">
      <path d="M 156.569902 231.5955 
L 156.569902 35.7555 
" clip-path="url(#pb7cf8ee1d6)" style="fill: none; stroke: #b0b0b0; stroke-width: 0.8; stroke-linecap: square"/>
     </g>
     <g id="line2d_6">
      <g>
       <use xlink:href="#mb7fdc51e3a" x="156.569902" y="231.5955" style="stroke: #000000; stroke-width: 0.8"/>
      </g>
     </g>
     <g id="text_3">
      <!-- 02:30 -->
      <g transform="translate(130.572289 259.585315)rotate(-30)scale(0.1 -0.1)">
       <defs>
        <path id="DejaVuSans-33" d="M 2597 2516 
Q 3050 2419 3304 2112 
Q 3559 1806 3559 1356 
Q 3559 666 3084 287 
Q 2609 -91 1734 -91 
Q 1441 -91 1130 -33 
Q 819 25 488 141 
L 488 750 
Q 750 597 1062 519 
Q 1375 441 1716 441 
Q 2309 441 2620 675 
Q 2931 909 2931 1356 
Q 2931 1769 2642 2001 
Q 2353 2234 1838 2234 
L 1294 2234 
L 1294 2753 
L 1863 2753 
Q 2328 2753 2575 2939 
Q 2822 3125 2822 3475 
Q 2822 3834 2567 4026 
Q 2313 4219 1838 4219 
Q 1578 4219 1281 4162 
Q 984 4106 628 3988 
L 628 4550 
Q 988 4650 1302 4700 
Q 1616 4750 1894 4750 
Q 2613 4750 3031 4423 
Q 3450 4097 3450 3541 
Q 3450 3153 3228 2886 
Q 3006 2619 2597 2516 
z
" transform="scale(0.015625)"/>
       </defs>
       <use xlink:href="#DejaVuSans-30"/>
       <use xlink:href="#DejaVuSans-32" x="63.623047"/>
       <use xlink:href="#DejaVuSans-3a" x="127.246094"/>
       <use xlink:href="#DejaVuSans-33" x="160.9375"/>
       <use xlink:href="#DejaVuSans-30" x="224.560547"/>
      </g>
     </g>
    </g>
    <g id="xtick_4">
     <g id="line2d_7">
      <path d="M 190.321443 231.5955 
L 190.321443 35.7555 
" clip-path="url(#pb7cf8ee1d6)" style="fill: none; stroke: #b0b0b0; stroke-width: 0.8; stroke-linecap: square"/>
     </g>
     <g id="line2d_8">
      <g>
       <use xlink:href="#mb7fdc51e3a" x="190.321443" y="231.5955" style="stroke: #000000; stroke-width: 0.8"/>
      </g>
     </g>
     <g id="text_4">
      <!-- 02:45 -->
      <g transform="translate(164.32383 259.585315)rotate(-30)scale(0.1 -0.1)">
       <defs>
        <path id="DejaVuSans-34" d="M 2419 4116 
L 825 1625 
L 2419 1625 
L 2419 4116 
z
M 2253 4666 
L 3047 4666 
L 3047 1625 
L 3713 1625 
L 3713 1100 
L 3047 1100 
L 3047 0 
L 2419 0 
L 2419 1100 
L 313 1100 
L 313 1709 
L 2253 4666 
z
" transform="scale(0.015625)"/>
       </defs>
       <use xlink:href="#DejaVuSans-30"/>
       <use xlink:href="#DejaVuSans-32" x="63.623047"/>
       <use xlink:href="#DejaVuSans-3a" x="127.246094"/>
       <use xlink:href="#DejaVuSans-34" x="160.9375"/>
       <use xlink:href="#DejaVuSans-35" x="224.560547"/>
      </g>
     </g>
    </g>
    <g id="xtick_5">
     <g id="line2d_9">
      <path d="M 224.072984 231.5955 
L 224.072984 35.7555 
" clip-path="url(#pb7cf8ee1d6)" style="fill: none; stroke: #b0b0b0; stroke-width: 0.8; stroke-linecap: square"/>
     </g>
     <g id="line2d_10">
      <g>
       <use xlink:href="#mb7fdc51e3a" x="224.072984" y="231.5955" style="stroke: #000000; stroke-width: 0.8"/>
      </g>
     </g>
     <g id="text_5">
      <!-- 03:00 -->
      <g transform="translate(198.07537 259.585315)rotate(-30)scale(0.1 -0.1)">
       <use xlink:href="#DejaVuSans-30"/>
       <use xlink:href="#DejaVuSans-33" x="63.623047"/>
       <use xlink:href="#DejaVuSans-3a" x="127.246094"/>
       <use xlink:href="#DejaVuSans-30" x="160.9375"/>
       <use xlink:href="#DejaVuSans-30" x="224.560547"/>
      </g>
     </g>
    </g>
    <g id="xtick_6">
     <g id="line2d_11">
      <path d="M 257.824525 231.5955 
L 257.824525 35.7555 
" clip-path="url(#pb7cf8ee1d6)" style="fill: none; stroke: #b0b0b0; stroke-width: 0.8; stroke-linecap: square"/>
     </g>
     <g id="line2d_12">
      <g>
       <use xlink:href="#mb7fdc51e3a" x="257.824525" y="231.5955" style="stroke: #000000; stroke-width: 0.8"/>
      </g>
     </g>
     <g id="text_6">
      <!-- 03:15 -->
      <g transform="translate(231.826911 259.585315)rotate(-30)scale(0.1 -0.1)">
       <use xlink:href="#DejaVuSans-30"/>
       <use xlink:href="#DejaVuSans-33" x="63.623047"/>
       <use xlink:href="#DejaVuSans-3a" x="127.246094"/>
       <use xlink:href="#DejaVuSans-31" x="160.9375"/>
       <use xlink:href="#DejaVuSans-35" x="224.560547"/>
      </g>
     </g>
    </g>
    <g id="xtick_7">
     <g id="line2d_13">
      <path d="M 291.576066 231.5955 
L 291.576066 35.7555 
" clip-path="url(#pb7cf8ee1d6)" style="fill: none; stroke: #b0b0b0; stroke-width: 0.8; stroke-linecap: square"/>
     </g>
     <g id="line2d_14">
      <g>
       <use xlink:href="#mb7fdc51e3a" x="291.576066" y="231.5955" style="stroke: #000000; stroke-width: 0.8"/>
      </g>
     </g>
     <g id="text_7">
      <!-- 03:30 -->
      <g transform="translate(265.578452 259.585315)rotate(-30)scale(0.1 -0.1)">
       <use xlink:href="#DejaVuSans-30"/>
       <use xlink:href="#DejaVuSans-33" x="63.623047"/>
       <use xlink:href="#DejaVuSans-3a" x="127.246094"/>
       <use xlink:href="#DejaVuSans-33" x="160.9375"/>
       <use xlink:href="#DejaVuSans-30" x="224.560547"/>
      </g>
     </g>
    </g>
    <g id="xtick_8">
     <g id="line2d_15">
      <path d="M 325.327606 231.5955 
L 325.327606 35.7555 
" clip-path="url(#pb7cf8ee1d6)" style="fill: none; stroke: #b0b0b0; stroke-width: 0.8; stroke-linecap: square"/>
     </g>
     <g id="line2d_16">
      <g>
       <use xlink:href="#mb7fdc51e3a" x="325.327606" y="231.5955" style="stroke: #000000; stroke-width: 0.8"/>
      </g>
     </g>
     <g id="text_8">
      <!-- 03:45 -->
      <g transform="translate(299.329993 259.585315)rotate(-30)scale(0.1 -0.1)">
       <use xlink:href="#DejaVuSans-30"/>
       <use xlink:href="#DejaVuSans-33" x="63.623047"/>
       <use xlink:href="#DejaVuSans-3a" x="127.246094"/>
       <use xlink:href="#DejaVuSans-34" x="160.9375"/>
       <use xlink:href="#DejaVuSans-35" x="224.560547"/>
      </g>
     </g>
    </g>
    <g id="xtick_9">
     <g id="line2d_17">
      <path d="M 359.079147 231.5955 
L 359.079147 35.7555 
" clip-path="url(#pb7cf8ee1d6)" style="fill: none; stroke: #b0b0b0; stroke-width: 0.8; stroke-linecap: square"/>
     </g>
     <g id="line2d_18">
      <g>
       <use xlink:href="#mb7fdc51e3a" x="359.079147" y="231.5955" style="stroke: #000000; stroke-width: 0.8"/>
      </g>
     </g>
     <g id="text_9">
      <!-- 04:00 -->
      <g transform="translate(333.081534 259.585315)rotate(-30)scale(0.1 -0.1)">
       <use xlink:href="#DejaVuSans-30"/>
       <use xlink:href="#DejaVuSans-34" x="63.623047"/>
       <use xlink:href="#DejaVuSans-3a" x="127.246094"/>
       <use xlink:href="#DejaVuSans-30" x="160.9375"/>
       <use xlink:href="#DejaVuSans-30" x="224.560547"/>
      </g>
     </g>
    </g>
    <g id="xtick_10">
     <g id="line2d_19">
      <path d="M 392.830688 231.5955 
L 392.830688 35.7555 
" clip-path="url(#pb7cf8ee1d6)" style="fill: none; stroke: #b0b0b0; stroke-width: 0.8; stroke-linecap: square"/>
     </g>
     <g id="line2d_20">
      <g>
       <use xlink:href="#mb7fdc51e3a" x="392.830688" y="231.5955" style="stroke: #000000; stroke-width: 0.8"/>
      </g>
     </g>
     <g id="text_10">
      <!-- 04:15 -->
      <g transform="translate(366.833075 259.585315)rotate(-30)scale(0.1 -0.1)">
       <use xlink:href="#DejaVuSans-30"/>
       <use xlink:href="#DejaVuSans-34" x="63.623047"/>
       <use xlink:href="#DejaVuSans-3a" x="127.246094"/>
       <use xlink:href="#DejaVuSans-31" x="160.9375"/>
       <use xlink:href="#DejaVuSans-35" x="224.560547"/>
      </g>
     </g>
    </g>
    <g id="text_11">
     <!-- Time (hour:minute) -->
     <g transform="translate(181.591094 272.984815)scale(0.1 -0.1)">
      <defs>
       <path id="DejaVuSans-54" d="M -19 4666 
L 3928 4666 
L 3928 4134 
L 2272 4134 
L 2272 0 
L 1638 0 
L 1638 4134 
L -19 4134 
L -19 4666 
z
" transform="scale(0.015625)"/>
       <path id="DejaVuSans-69" d="M 603 3500 
L 1178 3500 
L 1178 0 
L 603 0 
L 603 3500 
z
M 603 4863 
L 1178 4863 
L 1178 4134 
L 603 4134 
L 603 4863 
z
" transform="scale(0.015625)"/>
       <path id="DejaVuSans-6d" d="M 3328 2828 
Q 3544 3216 3844 3400 
Q 4144 3584 4550 3584 
Q 5097 3584 5394 3201 
Q 5691 2819 5691 2113 
L 5691 0 
L 5113 0 
L 5113 2094 
Q 5113 2597 4934 2840 
Q 4756 3084 4391 3084 
Q 3944 3084 3684 2787 
Q 3425 2491 3425 1978 
L 3425 0 
L 2847 0 
L 2847 2094 
Q 2847 2600 2669 2842 
Q 2491 3084 2119 3084 
Q 1678 3084 1418 2786 
Q 1159 2488 1159 1978 
L 1159 0 
L 581 0 
L 581 3500 
L 1159 3500 
L 1159 2956 
Q 1356 3278 1631 3431 
Q 1906 3584 2284 3584 
Q 2666 3584 2933 3390 
Q 3200 3197 3328 2828 
z
" transform="scale(0.015625)"/>
       <path id="DejaVuSans-65" d="M 3597 1894 
L 3597 1613 
L 953 1613 
Q 991 1019 1311 708 
Q 1631 397 2203 397 
Q 2534 397 2845 478 
Q 3156 559 3463 722 
L 3463 178 
Q 3153 47 2828 -22 
Q 2503 -91 2169 -91 
Q 1331 -91 842 396 
Q 353 884 353 1716 
Q 353 2575 817 3079 
Q 1281 3584 2069 3584 
Q 2775 3584 3186 3129 
Q 3597 2675 3597 1894 
z
M 3022 2063 
Q 3016 2534 2758 2815 
Q 2500 3097 2075 3097 
Q 1594 3097 1305 2825 
Q 1016 2553 972 2059 
L 3022 2063 
z
" transform="scale(0.015625)"/>
       <path id="DejaVuSans-20" transform="scale(0.015625)"/>
       <path id="DejaVuSans-28" d="M 1984 4856 
Q 1566 4138 1362 3434 
Q 1159 2731 1159 2009 
Q 1159 1288 1364 580 
Q 1569 -128 1984 -844 
L 1484 -844 
Q 1016 -109 783 600 
Q 550 1309 550 2009 
Q 550 2706 781 3412 
Q 1013 4119 1484 4856 
L 1984 4856 
z
" transform="scale(0.015625)"/>
       <path id="DejaVuSans-68" d="M 3513 2113 
L 3513 0 
L 2938 0 
L 2938 2094 
Q 2938 2591 2744 2837 
Q 2550 3084 2163 3084 
Q 1697 3084 1428 2787 
Q 1159 2491 1159 1978 
L 1159 0 
L 581 0 
L 581 4863 
L 1159 4863 
L 1159 2956 
Q 1366 3272 1645 3428 
Q 1925 3584 2291 3584 
Q 2894 3584 3203 3211 
Q 3513 2838 3513 2113 
z
" transform="scale(0.015625)"/>
       <path id="DejaVuSans-6f" d="M 1959 3097 
Q 1497 3097 1228 2736 
Q 959 2375 959 1747 
Q 959 1119 1226 758 
Q 1494 397 1959 397 
Q 2419 397 2687 759 
Q 2956 1122 2956 1747 
Q 2956 2369 2687 2733 
Q 2419 3097 1959 3097 
z
M 1959 3584 
Q 2709 3584 3137 3096 
Q 3566 2609 3566 1747 
Q 3566 888 3137 398 
Q 2709 -91 1959 -91 
Q 1206 -91 779 398 
Q 353 888 353 1747 
Q 353 2609 779 3096 
Q 1206 3584 1959 3584 
z
" transform="scale(0.015625)"/>
       <path id="DejaVuSans-75" d="M 544 1381 
L 544 3500 
L 1119 3500 
L 1119 1403 
Q 1119 906 1312 657 
Q 1506 409 1894 409 
Q 2359 409 2629 706 
Q 2900 1003 2900 1516 
L 2900 3500 
L 3475 3500 
L 3475 0 
L 2900 0 
L 2900 538 
Q 2691 219 2414 64 
Q 2138 -91 1772 -91 
Q 1169 -91 856 284 
Q 544 659 544 1381 
z
M 1991 3584 
L 1991 3584 
z
" transform="scale(0.015625)"/>
       <path id="DejaVuSans-72" d="M 2631 2963 
Q 2534 3019 2420 3045 
Q 2306 3072 2169 3072 
Q 1681 3072 1420 2755 
Q 1159 2438 1159 1844 
L 1159 0 
L 581 0 
L 581 3500 
L 1159 3500 
L 1159 2956 
Q 1341 3275 1631 3429 
Q 1922 3584 2338 3584 
Q 2397 3584 2469 3576 
Q 2541 3569 2628 3553 
L 2631 2963 
z
" transform="scale(0.015625)"/>
       <path id="DejaVuSans-6e" d="M 3513 2113 
L 3513 0 
L 2938 0 
L 2938 2094 
Q 2938 2591 2744 2837 
Q 2550 3084 2163 3084 
Q 1697 3084 1428 2787 
Q 1159 2491 1159 1978 
L 1159 0 
L 581 0 
L 581 3500 
L 1159 3500 
L 1159 2956 
Q 1366 3272 1645 3428 
Q 1925 3584 2291 3584 
Q 2894 3584 3203 3211 
Q 3513 2838 3513 2113 
z
" transform="scale(0.015625)"/>
       <path id="DejaVuSans-74" d="M 1172 4494 
L 1172 3500 
L 2356 3500 
L 2356 3053 
L 1172 3053 
L 1172 1153 
Q 1172 725 1289 603 
Q 1406 481 1766 481 
L 2356 481 
L 2356 0 
L 1766 0 
Q 1100 0 847 248 
Q 594 497 594 1153 
L 594 3053 
L 172 3053 
L 172 3500 
L 594 3500 
L 594 4494 
L 1172 4494 
z
" transform="scale(0.015625)"/>
       <path id="DejaVuSans-29" d="M 513 4856 
L 1013 4856 
Q 1481 4119 1714 3412 
Q 1947 2706 1947 2009 
Q 1947 1309 1714 600 
Q 1481 -109 1013 -844 
L 513 -844 
Q 928 -128 1133 580 
Q 1338 1288 1338 2009 
Q 1338 2731 1133 3434 
Q 928 4138 513 4856 
z
" transform="scale(0.015625)"/>
      </defs>
      <use xlink:href="#DejaVuSans-54"/>
      <use xlink:href="#DejaVuSans-69" x="57.958984"/>
      <use xlink:href="#DejaVuSans-6d" x="85.742188"/>
      <use xlink:href="#DejaVuSans-65" x="183.154297"/>
      <use xlink:href="#DejaVuSans-20" x="244.677734"/>
      <use xlink:href="#DejaVuSans-28" x="276.464844"/>
      <use xlink:href="#DejaVuSans-68" x="315.478516"/>
      <use xlink:href="#DejaVuSans-6f" x="378.857422"/>
      <use xlink:href="#DejaVuSans-75" x="440.039062"/>
      <use xlink:href="#DejaVuSans-72" x="503.417969"/>
      <use xlink:href="#DejaVuSans-3a" x="542.78125"/>
      <use xlink:href="#DejaVuSans-6d" x="576.472656"/>
      <use xlink:href="#DejaVuSans-69" x="673.884766"/>
      <use xlink:href="#DejaVuSans-6e" x="701.667969"/>
      <use xlink:href="#DejaVuSans-75" x="765.046875"/>
      <use xlink:href="#DejaVuSans-74" x="828.425781"/>
      <use xlink:href="#DejaVuSans-65" x="867.634766"/>
      <use xlink:href="#DejaVuSans-29" x="929.158203"/>
     </g>
    </g>
   </g>
   <g id="matplotlib.axis_2">
    <g id="ytick_1">
     <g id="line2d_21">
      <path d="M 62.598125 231.5955 
L 397.398125 231.5955 
" clip-path="url(#pb7cf8ee1d6)" style="fill: none; stroke: #b0b0b0; stroke-width: 0.8; stroke-linecap: square"/>
     </g>
     <g id="line2d_22">
      <defs>
       <path id="m1b00862d25" d="M 0 0 
L -3.5 0 
" style="stroke: #000000; stroke-width: 0.8"/>
      </defs>
      <g>
       <use xlink:href="#m1b00862d25" x="62.598125" y="231.5955" style="stroke: #000000; stroke-width: 0.8"/>
      </g>
     </g>
     <g id="text_12">
      <!-- $\mathdefault{10^{-4}}$ -->
      <g transform="translate(32.098125 235.394719)scale(0.1 -0.1)">
       <defs>
        <path id="DejaVuSans-2212" d="M 678 2272 
L 4684 2272 
L 4684 1741 
L 678 1741 
L 678 2272 
z
" transform="scale(0.015625)"/>
       </defs>
       <use xlink:href="#DejaVuSans-31" transform="translate(0 0.684375)"/>
       <use xlink:href="#DejaVuSans-30" transform="translate(63.623047 0.684375)"/>
       <use xlink:href="#DejaVuSans-2212" transform="translate(128.203125 38.965625)scale(0.7)"/>
       <use xlink:href="#DejaVuSans-34" transform="translate(186.855469 38.965625)scale(0.7)"/>
      </g>
     </g>
    </g>
    <g id="ytick_2">
     <g id="line2d_23">
      <path d="M 62.598125 195.988227 
L 397.398125 195.988227 
" clip-path="url(#pb7cf8ee1d6)" style="fill: none; stroke: #b0b0b0; stroke-width: 0.8; stroke-linecap: square"/>
     </g>
     <g id="line2d_24">
      <g>
       <use xlink:href="#m1b00862d25" x="62.598125" y="195.988227" style="stroke: #000000; stroke-width: 0.8"/>
      </g>
     </g>
     <g id="text_13">
      <!-- $\mathdefault{10^{-2}}$ -->
      <g transform="translate(32.098125 199.787446)scale(0.1 -0.1)">
       <use xlink:href="#DejaVuSans-31" transform="translate(0 0.765625)"/>
       <use xlink:href="#DejaVuSans-30" transform="translate(63.623047 0.765625)"/>
       <use xlink:href="#DejaVuSans-2212" transform="translate(128.203125 39.046875)scale(0.7)"/>
       <use xlink:href="#DejaVuSans-32" transform="translate(186.855469 39.046875)scale(0.7)"/>
      </g>
     </g>
    </g>
    <g id="ytick_3">
     <g id="line2d_25">
      <path d="M 62.598125 160.380955 
L 397.398125 160.380955 
" clip-path="url(#pb7cf8ee1d6)" style="fill: none; stroke: #b0b0b0; stroke-width: 0.8; stroke-linecap: square"/>
     </g>
     <g id="line2d_26">
      <g>
       <use xlink:href="#m1b00862d25" x="62.598125" y="160.380955" style="stroke: #000000; stroke-width: 0.8"/>
      </g>
     </g>
     <g id="text_14">
      <!-- $\mathdefault{10^{0}}$ -->
      <g transform="translate(37.998125 164.180173)scale(0.1 -0.1)">
       <use xlink:href="#DejaVuSans-31" transform="translate(0 0.765625)"/>
       <use xlink:href="#DejaVuSans-30" transform="translate(63.623047 0.765625)"/>
       <use xlink:href="#DejaVuSans-30" transform="translate(128.203125 39.046875)scale(0.7)"/>
      </g>
     </g>
    </g>
    <g id="ytick_4">
     <g id="line2d_27">
      <path d="M 62.598125 124.773682 
L 397.398125 124.773682 
" clip-path="url(#pb7cf8ee1d6)" style="fill: none; stroke: #b0b0b0; stroke-width: 0.8; stroke-linecap: square"/>
     </g>
     <g id="line2d_28">
      <g>
       <use xlink:href="#m1b00862d25" x="62.598125" y="124.773682" style="stroke: #000000; stroke-width: 0.8"/>
      </g>
     </g>
     <g id="text_15">
      <!-- $\mathdefault{10^{2}}$ -->
      <g transform="translate(37.998125 128.572901)scale(0.1 -0.1)">
       <use xlink:href="#DejaVuSans-31" transform="translate(0 0.765625)"/>
       <use xlink:href="#DejaVuSans-30" transform="translate(63.623047 0.765625)"/>
       <use xlink:href="#DejaVuSans-32" transform="translate(128.203125 39.046875)scale(0.7)"/>
      </g>
     </g>
    </g>
    <g id="ytick_5">
     <g id="line2d_29">
      <path d="M 62.598125 89.166409 
L 397.398125 89.166409 
" clip-path="url(#pb7cf8ee1d6)" style="fill: none; stroke: #b0b0b0; stroke-width: 0.8; stroke-linecap: square"/>
     </g>
     <g id="line2d_30">
      <g>
       <use xlink:href="#m1b00862d25" x="62.598125" y="89.166409" style="stroke: #000000; stroke-width: 0.8"/>
      </g>
     </g>
     <g id="text_16">
      <!-- $\mathdefault{10^{4}}$ -->
      <g transform="translate(37.998125 92.965628)scale(0.1 -0.1)">
       <use xlink:href="#DejaVuSans-31" transform="translate(0 0.684375)"/>
       <use xlink:href="#DejaVuSans-30" transform="translate(63.623047 0.684375)"/>
       <use xlink:href="#DejaVuSans-34" transform="translate(128.203125 38.965625)scale(0.7)"/>
      </g>
     </g>
    </g>
    <g id="ytick_6">
     <g id="line2d_31">
      <path d="M 62.598125 53.559136 
L 397.398125 53.559136 
" clip-path="url(#pb7cf8ee1d6)" style="fill: none; stroke: #b0b0b0; stroke-width: 0.8; stroke-linecap: square"/>
     </g>
     <g id="line2d_32">
      <g>
       <use xlink:href="#m1b00862d25" x="62.598125" y="53.559136" style="stroke: #000000; stroke-width: 0.8"/>
      </g>
     </g>
     <g id="text_17">
      <!-- $\mathdefault{10^{6}}$ -->
      <g transform="translate(37.998125 57.358355)scale(0.1 -0.1)">
       <defs>
        <path id="DejaVuSans-36" d="M 2113 2584 
Q 1688 2584 1439 2293 
Q 1191 2003 1191 1497 
Q 1191 994 1439 701 
Q 1688 409 2113 409 
Q 2538 409 2786 701 
Q 3034 994 3034 1497 
Q 3034 2003 2786 2293 
Q 2538 2584 2113 2584 
z
M 3366 4563 
L 3366 3988 
Q 3128 4100 2886 4159 
Q 2644 4219 2406 4219 
Q 1781 4219 1451 3797 
Q 1122 3375 1075 2522 
Q 1259 2794 1537 2939 
Q 1816 3084 2150 3084 
Q 2853 3084 3261 2657 
Q 3669 2231 3669 1497 
Q 3669 778 3244 343 
Q 2819 -91 2113 -91 
Q 1303 -91 875 529 
Q 447 1150 447 2328 
Q 447 3434 972 4092 
Q 1497 4750 2381 4750 
Q 2619 4750 2861 4703 
Q 3103 4656 3366 4563 
z
" transform="scale(0.015625)"/>
       </defs>
       <use xlink:href="#DejaVuSans-31" transform="translate(0 0.765625)"/>
       <use xlink:href="#DejaVuSans-30" transform="translate(63.623047 0.765625)"/>
       <use xlink:href="#DejaVuSans-36" transform="translate(128.203125 39.046875)scale(0.7)"/>
      </g>
     </g>
    </g>
    <g id="text_18">
     <!-- Effective dose rate -->
     <g transform="translate(14.798438 180.815344)rotate(-90)scale(0.1 -0.1)">
      <defs>
       <path id="DejaVuSans-45" d="M 628 4666 
L 3578 4666 
L 3578 4134 
L 1259 4134 
L 1259 2753 
L 3481 2753 
L 3481 2222 
L 1259 2222 
L 1259 531 
L 3634 531 
L 3634 0 
L 628 0 
L 628 4666 
z
" transform="scale(0.015625)"/>
       <path id="DejaVuSans-66" d="M 2375 4863 
L 2375 4384 
L 1825 4384 
Q 1516 4384 1395 4259 
Q 1275 4134 1275 3809 
L 1275 3500 
L 2222 3500 
L 2222 3053 
L 1275 3053 
L 1275 0 
L 697 0 
L 697 3053 
L 147 3053 
L 147 3500 
L 697 3500 
L 697 3744 
Q 697 4328 969 4595 
Q 1241 4863 1831 4863 
L 2375 4863 
z
" transform="scale(0.015625)"/>
       <path id="DejaVuSans-63" d="M 3122 3366 
L 3122 2828 
Q 2878 2963 2633 3030 
Q 2388 3097 2138 3097 
Q 1578 3097 1268 2742 
Q 959 2388 959 1747 
Q 959 1106 1268 751 
Q 1578 397 2138 397 
Q 2388 397 2633 464 
Q 2878 531 3122 666 
L 3122 134 
Q 2881 22 2623 -34 
Q 2366 -91 2075 -91 
Q 1284 -91 818 406 
Q 353 903 353 1747 
Q 353 2603 823 3093 
Q 1294 3584 2113 3584 
Q 2378 3584 2631 3529 
Q 2884 3475 3122 3366 
z
" transform="scale(0.015625)"/>
       <path id="DejaVuSans-76" d="M 191 3500 
L 800 3500 
L 1894 563 
L 2988 3500 
L 3597 3500 
L 2284 0 
L 1503 0 
L 191 3500 
z
" transform="scale(0.015625)"/>
       <path id="DejaVuSans-64" d="M 2906 2969 
L 2906 4863 
L 3481 4863 
L 3481 0 
L 2906 0 
L 2906 525 
Q 2725 213 2448 61 
Q 2172 -91 1784 -91 
Q 1150 -91 751 415 
Q 353 922 353 1747 
Q 353 2572 751 3078 
Q 1150 3584 1784 3584 
Q 2172 3584 2448 3432 
Q 2725 3281 2906 2969 
z
M 947 1747 
Q 947 1113 1208 752 
Q 1469 391 1925 391 
Q 2381 391 2643 752 
Q 2906 1113 2906 1747 
Q 2906 2381 2643 2742 
Q 2381 3103 1925 3103 
Q 1469 3103 1208 2742 
Q 947 2381 947 1747 
z
" transform="scale(0.015625)"/>
       <path id="DejaVuSans-73" d="M 2834 3397 
L 2834 2853 
Q 2591 2978 2328 3040 
Q 2066 3103 1784 3103 
Q 1356 3103 1142 2972 
Q 928 2841 928 2578 
Q 928 2378 1081 2264 
Q 1234 2150 1697 2047 
L 1894 2003 
Q 2506 1872 2764 1633 
Q 3022 1394 3022 966 
Q 3022 478 2636 193 
Q 2250 -91 1575 -91 
Q 1294 -91 989 -36 
Q 684 19 347 128 
L 347 722 
Q 666 556 975 473 
Q 1284 391 1588 391 
Q 1994 391 2212 530 
Q 2431 669 2431 922 
Q 2431 1156 2273 1281 
Q 2116 1406 1581 1522 
L 1381 1569 
Q 847 1681 609 1914 
Q 372 2147 372 2553 
Q 372 3047 722 3315 
Q 1072 3584 1716 3584 
Q 2034 3584 2315 3537 
Q 2597 3491 2834 3397 
z
" transform="scale(0.015625)"/>
       <path id="DejaVuSans-61" d="M 2194 1759 
Q 1497 1759 1228 1600 
Q 959 1441 959 1056 
Q 959 750 1161 570 
Q 1363 391 1709 391 
Q 2188 391 2477 730 
Q 2766 1069 2766 1631 
L 2766 1759 
L 2194 1759 
z
M 3341 1997 
L 3341 0 
L 2766 0 
L 2766 531 
Q 2569 213 2275 61 
Q 1981 -91 1556 -91 
Q 1019 -91 701 211 
Q 384 513 384 1019 
Q 384 1609 779 1909 
Q 1175 2209 1959 2209 
L 2766 2209 
L 2766 2266 
Q 2766 2663 2505 2880 
Q 2244 3097 1772 3097 
Q 1472 3097 1187 3025 
Q 903 2953 641 2809 
L 641 3341 
Q 956 3463 1253 3523 
Q 1550 3584 1831 3584 
Q 2591 3584 2966 3190 
Q 3341 2797 3341 1997 
z
" transform="scale(0.015625)"/>
      </defs>
      <use xlink:href="#DejaVuSans-45"/>
      <use xlink:href="#DejaVuSans-66" x="63.183594"/>
      <use xlink:href="#DejaVuSans-66" x="98.388672"/>
      <use xlink:href="#DejaVuSans-65" x="133.59375"/>
      <use xlink:href="#DejaVuSans-63" x="195.117188"/>
      <use xlink:href="#DejaVuSans-74" x="250.097656"/>
      <use xlink:href="#DejaVuSans-69" x="289.306641"/>
      <use xlink:href="#DejaVuSans-76" x="317.089844"/>
      <use xlink:href="#DejaVuSans-65" x="376.269531"/>
      <use xlink:href="#DejaVuSans-20" x="437.792969"/>
      <use xlink:href="#DejaVuSans-64" x="469.580078"/>
      <use xlink:href="#DejaVuSans-6f" x="533.056641"/>
      <use xlink:href="#DejaVuSans-73" x="594.238281"/>
      <use xlink:href="#DejaVuSans-65" x="646.337891"/>
      <use xlink:href="#DejaVuSans-20" x="707.861328"/>
      <use xlink:href="#DejaVuSans-72" x="739.648438"/>
      <use xlink:href="#DejaVuSans-61" x="780.761719"/>
      <use xlink:href="#DejaVuSans-74" x="842.041016"/>
      <use xlink:href="#DejaVuSans-65" x="881.25"/>
     </g>
     <!-- ($\mu Sv / hr$) -->
     <g transform="translate(25.998125 153.8255)rotate(-90)scale(0.1 -0.1)">
      <defs>
       <path id="DejaVuSans-Oblique-3bc" d="M -84 -1331 
L 856 3500 
L 1434 3500 
L 1009 1322 
Q 997 1256 987 1175 
Q 978 1094 978 1013 
Q 978 722 1161 565 
Q 1344 409 1684 409 
Q 2147 409 2431 671 
Q 2716 934 2816 1459 
L 3213 3500 
L 3788 3500 
L 3266 809 
Q 3253 750 3248 706 
Q 3244 663 3244 628 
Q 3244 531 3283 486 
Q 3322 441 3406 441 
Q 3438 441 3492 456 
Q 3547 472 3647 513 
L 3559 50 
Q 3422 -19 3297 -55 
Q 3172 -91 3053 -91 
Q 2847 -91 2730 40 
Q 2613 172 2613 403 
Q 2438 153 2195 31 
Q 1953 -91 1625 -91 
Q 1334 -91 1117 43 
Q 900 178 831 397 
L 494 -1331 
L -84 -1331 
z
" transform="scale(0.015625)"/>
       <path id="DejaVuSans-Oblique-53" d="M 3859 4513 
L 3738 3897 
Q 3422 4066 3111 4152 
Q 2800 4238 2509 4238 
Q 1944 4238 1609 3991 
Q 1275 3744 1275 3334 
Q 1275 3109 1398 2989 
Q 1522 2869 2034 2731 
L 2413 2638 
Q 3053 2472 3303 2217 
Q 3553 1963 3553 1503 
Q 3553 797 2998 353 
Q 2444 -91 1538 -91 
Q 1166 -91 791 -17 
Q 416 56 38 206 
L 166 856 
Q 513 641 861 531 
Q 1209 422 1556 422 
Q 2147 422 2503 684 
Q 2859 947 2859 1369 
Q 2859 1650 2717 1795 
Q 2575 1941 2106 2059 
L 1728 2156 
Q 1081 2325 845 2545 
Q 609 2766 609 3163 
Q 609 3859 1145 4304 
Q 1681 4750 2541 4750 
Q 2875 4750 3203 4690 
Q 3531 4631 3859 4513 
z
" transform="scale(0.015625)"/>
       <path id="DejaVuSans-Oblique-76" d="M 459 3500 
L 1069 3500 
L 1581 525 
L 3256 3500 
L 3866 3500 
L 1875 0 
L 1100 0 
L 459 3500 
z
" transform="scale(0.015625)"/>
       <path id="DejaVuSans-2f" d="M 1625 4666 
L 2156 4666 
L 531 -594 
L 0 -594 
L 1625 4666 
z
" transform="scale(0.015625)"/>
       <path id="DejaVuSans-Oblique-68" d="M 3566 2113 
L 3156 0 
L 2578 0 
L 2988 2091 
Q 3016 2238 3031 2350 
Q 3047 2463 3047 2528 
Q 3047 2791 2881 2937 
Q 2716 3084 2419 3084 
Q 1956 3084 1617 2771 
Q 1278 2459 1178 1941 
L 800 0 
L 225 0 
L 1172 4863 
L 1747 4863 
L 1375 2950 
Q 1594 3244 1934 3414 
Q 2275 3584 2650 3584 
Q 3113 3584 3367 3334 
Q 3622 3084 3622 2631 
Q 3622 2519 3608 2391 
Q 3594 2263 3566 2113 
z
" transform="scale(0.015625)"/>
       <path id="DejaVuSans-Oblique-72" d="M 2853 2969 
Q 2766 3016 2653 3041 
Q 2541 3066 2413 3066 
Q 1953 3066 1609 2717 
Q 1266 2369 1153 1784 
L 800 0 
L 225 0 
L 909 3500 
L 1484 3500 
L 1375 2956 
Q 1603 3259 1920 3421 
Q 2238 3584 2597 3584 
Q 2691 3584 2781 3573 
Q 2872 3563 2963 3538 
L 2853 2969 
z
" transform="scale(0.015625)"/>
      </defs>
      <use xlink:href="#DejaVuSans-28" transform="translate(0 0.015625)"/>
      <use xlink:href="#DejaVuSans-Oblique-3bc" transform="translate(39.013672 0.015625)"/>
      <use xlink:href="#DejaVuSans-Oblique-53" transform="translate(102.636719 0.015625)"/>
      <use xlink:href="#DejaVuSans-Oblique-76" transform="translate(166.113281 0.015625)"/>
      <use xlink:href="#DejaVuSans-2f" transform="translate(225.292969 0.015625)"/>
      <use xlink:href="#DejaVuSans-Oblique-68" transform="translate(258.984375 0.015625)"/>
      <use xlink:href="#DejaVuSans-Oblique-72" transform="translate(322.363281 0.015625)"/>
      <use xlink:href="#DejaVuSans-29" transform="translate(363.476562 0.015625)"/>
     </g>
    </g>
   </g>
   <g id="line2d_33">
    <path d="M 81.798407 139.205375 
L 87.218007 136.769741 
L 90.415164 135.082835 
L 98.927761 133.270225 
L 114.598175 131.528433 
L 131.4179 132.959326 
L 142.282358 134.401893 
L 152.97665 135.828692 
L 167.977581 136.963988 
L 186.652535 139.016472 
L 203.568104 139.831021 
L 214.242112 136.841677 
L 229.390868 135.462106 
L 251.162527 136.02435 
L 274.29227 137.282817 
L 293.330013 137.417109 
L 316.466473 138.310561 
L 334.260781 139.795887 
L 352.068188 140.569395 
" clip-path="url(#pb7cf8ee1d6)" style="fill: none; stroke-dasharray: 5.55,2.4; stroke-dashoffset: 0; stroke: #1f77b4; stroke-width: 1.5"/>
   </g>
   <g id="line2d_34">
    <path d="M 77.816307 129.105266 
L 89.06682 125.231436 
L 100.317334 126.011652 
L 111.567848 126.087599 
L 122.818361 126.515596 
L 134.068875 127.523147 
L 145.319389 127.8607 
L 156.569902 129.71283 
L 167.820416 130.625883 
L 179.070929 132.369419 
L 190.321443 132.546812 
L 201.571957 132.650916 
L 212.82247 133.138052 
L 224.072984 133.482139 
L 235.323497 133.901997 
L 246.574011 134.34798 
L 257.824525 134.819742 
L 269.075038 135.533443 
L 280.325552 135.608878 
L 291.576066 135.619066 
L 302.826579 136.026564 
L 314.077093 136.436799 
" clip-path="url(#pb7cf8ee1d6)" style="fill: none; stroke: #1f77b4; stroke-width: 1.5; stroke-linecap: square"/>
   </g>
   <g id="line2d_35">
    <path d="M 85.546339 150.749718 
L 104.398701 148.541749 
L 123.204683 148.854207 
L 137.029608 150.829649 
L 149.86249 152.911121 
L 166.663254 154.584129 
L 187.422251 156.372926 
L 205.460856 156.539017 
L 218.164635 153.679765 
L 227.651523 153.119921 
L 248.848856 154.147311 
L 270.60259 155.68365 
L 292.372676 156.331403 
L 314.14322 156.954244 
L 330.951032 158.244215 
L 347.757417 159.611695 
L 369.536213 159.78609 
L 381.399733 160.741112 
" clip-path="url(#pb7cf8ee1d6)" style="fill: none; stroke-dasharray: 5.55,2.4; stroke-dashoffset: 0; stroke: #ff7f0e; stroke-width: 1.5"/>
   </g>
   <g id="line2d_36">
    <path d="M 77.816307 146.972269 
L 89.06682 142.441193 
L 100.317334 146.120113 
L 111.567848 146.266517 
L 122.818361 146.897457 
L 134.068875 148.733867 
L 145.319389 148.831986 
L 156.569902 151.683234 
L 167.820416 152.697369 
L 179.070929 154.518146 
L 190.321443 154.775477 
L 201.571957 154.938898 
L 212.82247 155.552899 
L 224.072984 155.886302 
L 235.323497 156.358167 
L 246.574011 156.876902 
L 257.824525 157.437085 
L 269.075038 158.236431 
L 280.325552 158.311866 
L 291.576066 158.236409 
L 302.826579 158.889861 
L 314.077093 159.57989 
" clip-path="url(#pb7cf8ee1d6)" style="fill: none; stroke: #ff7f0e; stroke-width: 1.5; stroke-linecap: square"/>
   </g>
   <g id="line2d_37">
    <path d="M 90.434137 175.676819 
L 111.837297 174.742559 
L 128.634845 176.590318 
L 140.481199 178.478216 
L 157.271004 180.746738 
L 178.421132 182.80211 
L 197.213533 183.852634 
L 209.289331 182.495436 
L 222.626952 180.206943 
L 244.392911 181.078919 
L 266.140838 182.930831 
L 287.902061 184.060248 
L 309.676578 184.46717 
L 328.458644 186.079288 
L 347.241971 187.622893 
L 364.077621 187.400055 
" clip-path="url(#pb7cf8ee1d6)" style="fill: none; stroke-dasharray: 5.55,2.4; stroke-dashoffset: 0; stroke: #2ca02c; stroke-width: 1.5"/>
   </g>
   <g id="line2d_38">
    <path d="M 77.816307 173.858706 
L 89.06682 168.808186 
L 100.317334 173.678002 
L 111.567848 173.849485 
L 122.818361 174.489918 
L 134.068875 176.444695 
L 145.319389 176.4381 
L 156.569902 179.398506 
L 167.820416 180.416178 
L 179.070929 182.236458 
L 190.321443 182.503192 
L 201.571957 182.67515 
L 212.82247 183.313059 
L 224.072984 183.641943 
L 235.323497 184.113232 
L 246.574011 184.641263 
L 257.824525 185.218487 
L 269.075038 186.034083 
L 280.325552 186.109518 
L 291.576066 186.01781 
L 302.826579 186.716695 
L 314.077093 187.454574 
" clip-path="url(#pb7cf8ee1d6)" style="fill: none; stroke: #2ca02c; stroke-width: 1.5; stroke-linecap: square"/>
   </g>
   <g id="line2d_39">
    <path d="M 91.703254 192.796619 
L 113.491983 192.431219 
L 130.283876 194.586246 
L 142.12995 196.489369 
L 158.921869 198.643012 
L 180.664753 200.768973 
L 200.455302 201.381663 
L 220.317452 198.103217 
L 242.086621 198.800798 
L 263.833937 200.685928 
L 285.591186 202.031262 
L 307.368453 202.288703 
L 327.1399 203.93946 
L 346.909903 205.668649 
L 365.720278 205.742352 
" clip-path="url(#pb7cf8ee1d6)" style="fill: none; stroke-dasharray: 5.55,2.4; stroke-dashoffset: 0; stroke: #d62728; stroke-width: 1.5"/>
   </g>
   <g id="line2d_40">
    <path d="M 77.816307 191.778603 
L 89.06682 186.476591 
L 100.317334 192.052525 
L 111.567848 192.241733 
L 122.818361 192.912899 
L 134.068875 195.035063 
L 145.319389 194.95167 
L 156.569902 198.128816 
L 167.820416 199.167707 
L 179.070929 201.00287 
L 190.321443 201.290038 
L 201.571957 201.478183 
L 212.82247 202.154261 
L 224.072984 202.478665 
L 235.323497 202.960604 
L 246.574011 203.508949 
L 257.824525 204.114459 
L 269.075038 204.95784 
L 280.325552 205.033275 
L 291.576066 204.913782 
L 302.826579 205.693265 
L 314.077093 206.526815 
" clip-path="url(#pb7cf8ee1d6)" style="fill: none; stroke: #d62728; stroke-width: 1.5; stroke-linecap: square"/>
   </g>
   <g id="line2d_41">
    <path d="M 91.387537 209.953789 
L 113.173668 209.729567 
L 130.952062 212.07975 
L 143.784864 214.165573 
L 160.578847 216.207104 
L 182.322801 218.274934 
L 203.017524 218.665247 
L 219.334365 215.657621 
L 241.765097 216.273541 
L 263.511649 218.200193 
L 285.269051 219.537223 
L 307.044943 219.869405 
L 326.816967 221.488789 
L 346.586393 223.249351 
L 366.383631 223.498487 
L 382.179943 225.951884 
" clip-path="url(#pb7cf8ee1d6)" style="fill: none; stroke-dasharray: 5.55,2.4; stroke-dashoffset: 0; stroke: #9467bd; stroke-width: 1.5"/>
   </g>
   <g id="line2d_42">
    <path d="M 77.816307 206.341641 
L 89.06682 200.853156 
L 100.317334 206.996808 
L 111.567848 207.202097 
L 122.818361 207.89974 
L 134.068875 210.168949 
L 145.319389 210.012059 
L 156.569902 213.360266 
L 167.820416 214.412748 
L 179.070929 216.255985 
L 190.321443 216.557644 
L 201.571957 216.757606 
L 212.82247 217.463159 
L 224.072984 217.78327 
L 235.323497 218.269689 
L 246.574011 218.831543 
L 257.824525 219.458137 
L 269.075038 220.321951 
L 280.325552 220.397386 
L 291.576066 220.257461 
L 302.826579 221.095022 
L 314.077093 221.991886 
" clip-path="url(#pb7cf8ee1d6)" style="fill: none; stroke: #9467bd; stroke-width: 1.5; stroke-linecap: square"/>
   </g>
   <g id="patch_3">
    <path d="M 62.598125 231.5955 
L 62.598125 35.7555 
" style="fill: none; stroke: #000000; stroke-width: 0.8; stroke-linejoin: miter; stroke-linecap: square"/>
   </g>
   <g id="patch_4">
    <path d="M 397.398125 231.5955 
L 397.398125 35.7555 
" style="fill: none; stroke: #000000; stroke-width: 0.8; stroke-linejoin: miter; stroke-linecap: square"/>
   </g>
   <g id="patch_5">
    <path d="M 62.598125 231.5955 
L 397.398125 231.5955 
" style="fill: none; stroke: #000000; stroke-width: 0.8; stroke-linejoin: miter; stroke-linecap: square"/>
   </g>
   <g id="patch_6">
    <path d="M 62.598125 35.7555 
L 397.398125 35.7555 
" style="fill: none; stroke: #000000; stroke-width: 0.8; stroke-linejoin: miter; stroke-linecap: square"/>
   </g>
   <g id="text_19">
    <!-- WASAVIES comparison, -->
    <g transform="translate(160.325938 16.318125)scale(0.12 -0.12)">
     <defs>
      <path id="DejaVuSans-57" d="M 213 4666 
L 850 4666 
L 1831 722 
L 2809 4666 
L 3519 4666 
L 4500 722 
L 5478 4666 
L 6119 4666 
L 4947 0 
L 4153 0 
L 3169 4050 
L 2175 0 
L 1381 0 
L 213 4666 
z
" transform="scale(0.015625)"/>
      <path id="DejaVuSans-41" d="M 2188 4044 
L 1331 1722 
L 3047 1722 
L 2188 4044 
z
M 1831 4666 
L 2547 4666 
L 4325 0 
L 3669 0 
L 3244 1197 
L 1141 1197 
L 716 0 
L 50 0 
L 1831 4666 
z
" transform="scale(0.015625)"/>
      <path id="DejaVuSans-53" d="M 3425 4513 
L 3425 3897 
Q 3066 4069 2747 4153 
Q 2428 4238 2131 4238 
Q 1616 4238 1336 4038 
Q 1056 3838 1056 3469 
Q 1056 3159 1242 3001 
Q 1428 2844 1947 2747 
L 2328 2669 
Q 3034 2534 3370 2195 
Q 3706 1856 3706 1288 
Q 3706 609 3251 259 
Q 2797 -91 1919 -91 
Q 1588 -91 1214 -16 
Q 841 59 441 206 
L 441 856 
Q 825 641 1194 531 
Q 1563 422 1919 422 
Q 2459 422 2753 634 
Q 3047 847 3047 1241 
Q 3047 1584 2836 1778 
Q 2625 1972 2144 2069 
L 1759 2144 
Q 1053 2284 737 2584 
Q 422 2884 422 3419 
Q 422 4038 858 4394 
Q 1294 4750 2059 4750 
Q 2388 4750 2728 4690 
Q 3069 4631 3425 4513 
z
" transform="scale(0.015625)"/>
      <path id="DejaVuSans-56" d="M 1831 0 
L 50 4666 
L 709 4666 
L 2188 738 
L 3669 4666 
L 4325 4666 
L 2547 0 
L 1831 0 
z
" transform="scale(0.015625)"/>
      <path id="DejaVuSans-49" d="M 628 4666 
L 1259 4666 
L 1259 0 
L 628 0 
L 628 4666 
z
" transform="scale(0.015625)"/>
      <path id="DejaVuSans-70" d="M 1159 525 
L 1159 -1331 
L 581 -1331 
L 581 3500 
L 1159 3500 
L 1159 2969 
Q 1341 3281 1617 3432 
Q 1894 3584 2278 3584 
Q 2916 3584 3314 3078 
Q 3713 2572 3713 1747 
Q 3713 922 3314 415 
Q 2916 -91 2278 -91 
Q 1894 -91 1617 61 
Q 1341 213 1159 525 
z
M 3116 1747 
Q 3116 2381 2855 2742 
Q 2594 3103 2138 3103 
Q 1681 3103 1420 2742 
Q 1159 2381 1159 1747 
Q 1159 1113 1420 752 
Q 1681 391 2138 391 
Q 2594 391 2855 752 
Q 3116 1113 3116 1747 
z
" transform="scale(0.015625)"/>
      <path id="DejaVuSans-2c" d="M 750 794 
L 1409 794 
L 1409 256 
L 897 -744 
L 494 -744 
L 750 256 
L 750 794 
z
" transform="scale(0.015625)"/>
     </defs>
     <use xlink:href="#DejaVuSans-57"/>
     <use xlink:href="#DejaVuSans-41" x="93.376953"/>
     <use xlink:href="#DejaVuSans-53" x="161.785156"/>
     <use xlink:href="#DejaVuSans-41" x="227.136719"/>
     <use xlink:href="#DejaVuSans-56" x="289.169922"/>
     <use xlink:href="#DejaVuSans-49" x="357.578125"/>
     <use xlink:href="#DejaVuSans-45" x="387.070312"/>
     <use xlink:href="#DejaVuSans-53" x="450.253906"/>
     <use xlink:href="#DejaVuSans-20" x="513.730469"/>
     <use xlink:href="#DejaVuSans-63" x="545.517578"/>
     <use xlink:href="#DejaVuSans-6f" x="600.498047"/>
     <use xlink:href="#DejaVuSans-6d" x="661.679688"/>
     <use xlink:href="#DejaVuSans-70" x="759.091797"/>
     <use xlink:href="#DejaVuSans-61" x="822.568359"/>
     <use xlink:href="#DejaVuSans-72" x="883.847656"/>
     <use xlink:href="#DejaVuSans-69" x="924.960938"/>
     <use xlink:href="#DejaVuSans-73" x="952.744141"/>
     <use xlink:href="#DejaVuSans-6f" x="1004.84375"/>
     <use xlink:href="#DejaVuSans-6e" x="1066.025391"/>
     <use xlink:href="#DejaVuSans-2c" x="1129.404297"/>
    </g>
    <!-- AniMAIRE dose rates divided by 3 -->
    <g transform="translate(129.085625 29.7555)scale(0.12 -0.12)">
     <defs>
      <path id="DejaVuSans-4d" d="M 628 4666 
L 1569 4666 
L 2759 1491 
L 3956 4666 
L 4897 4666 
L 4897 0 
L 4281 0 
L 4281 4097 
L 3078 897 
L 2444 897 
L 1241 4097 
L 1241 0 
L 628 0 
L 628 4666 
z
" transform="scale(0.015625)"/>
      <path id="DejaVuSans-52" d="M 2841 2188 
Q 3044 2119 3236 1894 
Q 3428 1669 3622 1275 
L 4263 0 
L 3584 0 
L 2988 1197 
Q 2756 1666 2539 1819 
Q 2322 1972 1947 1972 
L 1259 1972 
L 1259 0 
L 628 0 
L 628 4666 
L 2053 4666 
Q 2853 4666 3247 4331 
Q 3641 3997 3641 3322 
Q 3641 2881 3436 2590 
Q 3231 2300 2841 2188 
z
M 1259 4147 
L 1259 2491 
L 2053 2491 
Q 2509 2491 2742 2702 
Q 2975 2913 2975 3322 
Q 2975 3731 2742 3939 
Q 2509 4147 2053 4147 
L 1259 4147 
z
" transform="scale(0.015625)"/>
      <path id="DejaVuSans-62" d="M 3116 1747 
Q 3116 2381 2855 2742 
Q 2594 3103 2138 3103 
Q 1681 3103 1420 2742 
Q 1159 2381 1159 1747 
Q 1159 1113 1420 752 
Q 1681 391 2138 391 
Q 2594 391 2855 752 
Q 3116 1113 3116 1747 
z
M 1159 2969 
Q 1341 3281 1617 3432 
Q 1894 3584 2278 3584 
Q 2916 3584 3314 3078 
Q 3713 2572 3713 1747 
Q 3713 922 3314 415 
Q 2916 -91 2278 -91 
Q 1894 -91 1617 61 
Q 1341 213 1159 525 
L 1159 0 
L 581 0 
L 581 4863 
L 1159 4863 
L 1159 2969 
z
" transform="scale(0.015625)"/>
      <path id="DejaVuSans-79" d="M 2059 -325 
Q 1816 -950 1584 -1140 
Q 1353 -1331 966 -1331 
L 506 -1331 
L 506 -850 
L 844 -850 
Q 1081 -850 1212 -737 
Q 1344 -625 1503 -206 
L 1606 56 
L 191 3500 
L 800 3500 
L 1894 763 
L 2988 3500 
L 3597 3500 
L 2059 -325 
z
" transform="scale(0.015625)"/>
     </defs>
     <use xlink:href="#DejaVuSans-41"/>
     <use xlink:href="#DejaVuSans-6e" x="68.408203"/>
     <use xlink:href="#DejaVuSans-69" x="131.787109"/>
     <use xlink:href="#DejaVuSans-4d" x="159.570312"/>
     <use xlink:href="#DejaVuSans-41" x="245.849609"/>
     <use xlink:href="#DejaVuSans-49" x="314.257812"/>
     <use xlink:href="#DejaVuSans-52" x="343.75"/>
     <use xlink:href="#DejaVuSans-45" x="413.232422"/>
     <use xlink:href="#DejaVuSans-20" x="476.416016"/>
     <use xlink:href="#DejaVuSans-64" x="508.203125"/>
     <use xlink:href="#DejaVuSans-6f" x="571.679688"/>
     <use xlink:href="#DejaVuSans-73" x="632.861328"/>
     <use xlink:href="#DejaVuSans-65" x="684.960938"/>
     <use xlink:href="#DejaVuSans-20" x="746.484375"/>
     <use xlink:href="#DejaVuSans-72" x="778.271484"/>
     <use xlink:href="#DejaVuSans-61" x="819.384766"/>
     <use xlink:href="#DejaVuSans-74" x="880.664062"/>
     <use xlink:href="#DejaVuSans-65" x="919.873047"/>
     <use xlink:href="#DejaVuSans-73" x="981.396484"/>
     <use xlink:href="#DejaVuSans-20" x="1033.496094"/>
     <use xlink:href="#DejaVuSans-64" x="1065.283203"/>
     <use xlink:href="#DejaVuSans-69" x="1128.759766"/>
     <use xlink:href="#DejaVuSans-76" x="1156.542969"/>
     <use xlink:href="#DejaVuSans-69" x="1215.722656"/>
     <use xlink:href="#DejaVuSans-64" x="1243.505859"/>
     <use xlink:href="#DejaVuSans-65" x="1306.982422"/>
     <use xlink:href="#DejaVuSans-64" x="1368.505859"/>
     <use xlink:href="#DejaVuSans-20" x="1431.982422"/>
     <use xlink:href="#DejaVuSans-62" x="1463.769531"/>
     <use xlink:href="#DejaVuSans-79" x="1527.246094"/>
     <use xlink:href="#DejaVuSans-20" x="1586.425781"/>
     <use xlink:href="#DejaVuSans-33" x="1618.212891"/>
    </g>
   </g>
   <g id="legend_1">
    <g id="patch_7">
     <path d="M 126.209375 100.868 
L 391.798125 100.868 
Q 393.398125 100.868 393.398125 99.268 
L 393.398125 41.3555 
Q 393.398125 39.7555 391.798125 39.7555 
L 126.209375 39.7555 
Q 124.609375 39.7555 124.609375 41.3555 
L 124.609375 99.268 
Q 124.609375 100.868 126.209375 100.868 
z
" style="fill: #ffffff; opacity: 0.8; stroke: #cccccc; stroke-linejoin: miter"/>
    </g>
    <g id="line2d_43">
     <path d="M 127.809375 46.23425 
L 135.809375 46.23425 
L 143.809375 46.23425 
" style="fill: none; stroke-dasharray: 5.55,2.4; stroke-dashoffset: 0; stroke: #1f77b4; stroke-width: 1.5"/>
    </g>
    <g id="text_20">
     <!-- WASAVIES, 65.62kft/20km -->
     <g transform="translate(150.209375 49.03425)scale(0.08 -0.08)">
      <defs>
       <path id="DejaVuSans-2e" d="M 684 794 
L 1344 794 
L 1344 0 
L 684 0 
L 684 794 
z
" transform="scale(0.015625)"/>
       <path id="DejaVuSans-6b" d="M 581 4863 
L 1159 4863 
L 1159 1991 
L 2875 3500 
L 3609 3500 
L 1753 1863 
L 3688 0 
L 2938 0 
L 1159 1709 
L 1159 0 
L 581 0 
L 581 4863 
z
" transform="scale(0.015625)"/>
      </defs>
      <use xlink:href="#DejaVuSans-57"/>
      <use xlink:href="#DejaVuSans-41" x="93.376953"/>
      <use xlink:href="#DejaVuSans-53" x="161.785156"/>
      <use xlink:href="#DejaVuSans-41" x="227.136719"/>
      <use xlink:href="#DejaVuSans-56" x="289.169922"/>
      <use xlink:href="#DejaVuSans-49" x="357.578125"/>
      <use xlink:href="#DejaVuSans-45" x="387.070312"/>
      <use xlink:href="#DejaVuSans-53" x="450.253906"/>
      <use xlink:href="#DejaVuSans-2c" x="513.730469"/>
      <use xlink:href="#DejaVuSans-20" x="545.517578"/>
      <use xlink:href="#DejaVuSans-36" x="577.304688"/>
      <use xlink:href="#DejaVuSans-35" x="640.927734"/>
      <use xlink:href="#DejaVuSans-2e" x="704.550781"/>
      <use xlink:href="#DejaVuSans-36" x="736.337891"/>
      <use xlink:href="#DejaVuSans-32" x="799.960938"/>
      <use xlink:href="#DejaVuSans-6b" x="863.583984"/>
      <use xlink:href="#DejaVuSans-66" x="921.494141"/>
      <use xlink:href="#DejaVuSans-74" x="954.949219"/>
      <use xlink:href="#DejaVuSans-2f" x="994.158203"/>
      <use xlink:href="#DejaVuSans-32" x="1027.849609"/>
      <use xlink:href="#DejaVuSans-30" x="1091.472656"/>
      <use xlink:href="#DejaVuSans-6b" x="1155.095703"/>
      <use xlink:href="#DejaVuSans-6d" x="1213.005859"/>
     </g>
    </g>
    <g id="line2d_44">
     <path d="M 127.809375 57.97675 
L 135.809375 57.97675 
L 143.809375 57.97675 
" style="fill: none; stroke: #1f77b4; stroke-width: 1.5; stroke-linecap: square"/>
    </g>
    <g id="text_21">
     <!-- AniMAIRE, 65.62kft/20km -->
     <g transform="translate(150.209375 60.77675)scale(0.08 -0.08)">
      <use xlink:href="#DejaVuSans-41"/>
      <use xlink:href="#DejaVuSans-6e" x="68.408203"/>
      <use xlink:href="#DejaVuSans-69" x="131.787109"/>
      <use xlink:href="#DejaVuSans-4d" x="159.570312"/>
      <use xlink:href="#DejaVuSans-41" x="245.849609"/>
      <use xlink:href="#DejaVuSans-49" x="314.257812"/>
      <use xlink:href="#DejaVuSans-52" x="343.75"/>
      <use xlink:href="#DejaVuSans-45" x="413.232422"/>
      <use xlink:href="#DejaVuSans-2c" x="476.416016"/>
      <use xlink:href="#DejaVuSans-20" x="508.203125"/>
      <use xlink:href="#DejaVuSans-36" x="539.990234"/>
      <use xlink:href="#DejaVuSans-35" x="603.613281"/>
      <use xlink:href="#DejaVuSans-2e" x="667.236328"/>
      <use xlink:href="#DejaVuSans-36" x="699.023438"/>
      <use xlink:href="#DejaVuSans-32" x="762.646484"/>
      <use xlink:href="#DejaVuSans-6b" x="826.269531"/>
      <use xlink:href="#DejaVuSans-66" x="884.179688"/>
      <use xlink:href="#DejaVuSans-74" x="917.634766"/>
      <use xlink:href="#DejaVuSans-2f" x="956.84375"/>
      <use xlink:href="#DejaVuSans-32" x="990.535156"/>
      <use xlink:href="#DejaVuSans-30" x="1054.158203"/>
      <use xlink:href="#DejaVuSans-6b" x="1117.78125"/>
      <use xlink:href="#DejaVuSans-6d" x="1175.691406"/>
     </g>
    </g>
    <g id="line2d_45">
     <path d="M 127.809375 69.71925 
L 135.809375 69.71925 
L 143.809375 69.71925 
" style="fill: none; stroke-dasharray: 5.55,2.4; stroke-dashoffset: 0; stroke: #ff7f0e; stroke-width: 1.5"/>
    </g>
    <g id="text_22">
     <!-- WASAVIES, 39.37kft/12km -->
     <g transform="translate(150.209375 72.51925)scale(0.08 -0.08)">
      <defs>
       <path id="DejaVuSans-39" d="M 703 97 
L 703 672 
Q 941 559 1184 500 
Q 1428 441 1663 441 
Q 2288 441 2617 861 
Q 2947 1281 2994 2138 
Q 2813 1869 2534 1725 
Q 2256 1581 1919 1581 
Q 1219 1581 811 2004 
Q 403 2428 403 3163 
Q 403 3881 828 4315 
Q 1253 4750 1959 4750 
Q 2769 4750 3195 4129 
Q 3622 3509 3622 2328 
Q 3622 1225 3098 567 
Q 2575 -91 1691 -91 
Q 1453 -91 1209 -44 
Q 966 3 703 97 
z
M 1959 2075 
Q 2384 2075 2632 2365 
Q 2881 2656 2881 3163 
Q 2881 3666 2632 3958 
Q 2384 4250 1959 4250 
Q 1534 4250 1286 3958 
Q 1038 3666 1038 3163 
Q 1038 2656 1286 2365 
Q 1534 2075 1959 2075 
z
" transform="scale(0.015625)"/>
       <path id="DejaVuSans-37" d="M 525 4666 
L 3525 4666 
L 3525 4397 
L 1831 0 
L 1172 0 
L 2766 4134 
L 525 4134 
L 525 4666 
z
" transform="scale(0.015625)"/>
      </defs>
      <use xlink:href="#DejaVuSans-57"/>
      <use xlink:href="#DejaVuSans-41" x="93.376953"/>
      <use xlink:href="#DejaVuSans-53" x="161.785156"/>
      <use xlink:href="#DejaVuSans-41" x="227.136719"/>
      <use xlink:href="#DejaVuSans-56" x="289.169922"/>
      <use xlink:href="#DejaVuSans-49" x="357.578125"/>
      <use xlink:href="#DejaVuSans-45" x="387.070312"/>
      <use xlink:href="#DejaVuSans-53" x="450.253906"/>
      <use xlink:href="#DejaVuSans-2c" x="513.730469"/>
      <use xlink:href="#DejaVuSans-20" x="545.517578"/>
      <use xlink:href="#DejaVuSans-33" x="577.304688"/>
      <use xlink:href="#DejaVuSans-39" x="640.927734"/>
      <use xlink:href="#DejaVuSans-2e" x="704.550781"/>
      <use xlink:href="#DejaVuSans-33" x="736.337891"/>
      <use xlink:href="#DejaVuSans-37" x="799.960938"/>
      <use xlink:href="#DejaVuSans-6b" x="863.583984"/>
      <use xlink:href="#DejaVuSans-66" x="921.494141"/>
      <use xlink:href="#DejaVuSans-74" x="954.949219"/>
      <use xlink:href="#DejaVuSans-2f" x="994.158203"/>
      <use xlink:href="#DejaVuSans-31" x="1027.849609"/>
      <use xlink:href="#DejaVuSans-32" x="1091.472656"/>
      <use xlink:href="#DejaVuSans-6b" x="1155.095703"/>
      <use xlink:href="#DejaVuSans-6d" x="1213.005859"/>
     </g>
    </g>
    <g id="line2d_46">
     <path d="M 127.809375 81.46175 
L 135.809375 81.46175 
L 143.809375 81.46175 
" style="fill: none; stroke: #ff7f0e; stroke-width: 1.5; stroke-linecap: square"/>
    </g>
    <g id="text_23">
     <!-- AniMAIRE, 39.37kft/12km -->
     <g transform="translate(150.209375 84.26175)scale(0.08 -0.08)">
      <use xlink:href="#DejaVuSans-41"/>
      <use xlink:href="#DejaVuSans-6e" x="68.408203"/>
      <use xlink:href="#DejaVuSans-69" x="131.787109"/>
      <use xlink:href="#DejaVuSans-4d" x="159.570312"/>
      <use xlink:href="#DejaVuSans-41" x="245.849609"/>
      <use xlink:href="#DejaVuSans-49" x="314.257812"/>
      <use xlink:href="#DejaVuSans-52" x="343.75"/>
      <use xlink:href="#DejaVuSans-45" x="413.232422"/>
      <use xlink:href="#DejaVuSans-2c" x="476.416016"/>
      <use xlink:href="#DejaVuSans-20" x="508.203125"/>
      <use xlink:href="#DejaVuSans-33" x="539.990234"/>
      <use xlink:href="#DejaVuSans-39" x="603.613281"/>
      <use xlink:href="#DejaVuSans-2e" x="667.236328"/>
      <use xlink:href="#DejaVuSans-33" x="699.023438"/>
      <use xlink:href="#DejaVuSans-37" x="762.646484"/>
      <use xlink:href="#DejaVuSans-6b" x="826.269531"/>
      <use xlink:href="#DejaVuSans-66" x="884.179688"/>
      <use xlink:href="#DejaVuSans-74" x="917.634766"/>
      <use xlink:href="#DejaVuSans-2f" x="956.84375"/>
      <use xlink:href="#DejaVuSans-31" x="990.535156"/>
      <use xlink:href="#DejaVuSans-32" x="1054.158203"/>
      <use xlink:href="#DejaVuSans-6b" x="1117.78125"/>
      <use xlink:href="#DejaVuSans-6d" x="1175.691406"/>
     </g>
    </g>
    <g id="line2d_47">
     <path d="M 127.809375 93.20425 
L 135.809375 93.20425 
L 143.809375 93.20425 
" style="fill: none; stroke-dasharray: 5.55,2.4; stroke-dashoffset: 0; stroke: #2ca02c; stroke-width: 1.5"/>
    </g>
    <g id="text_24">
     <!-- WASAVIES, 16.40kft/5km -->
     <g transform="translate(150.209375 96.00425)scale(0.08 -0.08)">
      <use xlink:href="#DejaVuSans-57"/>
      <use xlink:href="#DejaVuSans-41" x="93.376953"/>
      <use xlink:href="#DejaVuSans-53" x="161.785156"/>
      <use xlink:href="#DejaVuSans-41" x="227.136719"/>
      <use xlink:href="#DejaVuSans-56" x="289.169922"/>
      <use xlink:href="#DejaVuSans-49" x="357.578125"/>
      <use xlink:href="#DejaVuSans-45" x="387.070312"/>
      <use xlink:href="#DejaVuSans-53" x="450.253906"/>
      <use xlink:href="#DejaVuSans-2c" x="513.730469"/>
      <use xlink:href="#DejaVuSans-20" x="545.517578"/>
      <use xlink:href="#DejaVuSans-31" x="577.304688"/>
      <use xlink:href="#DejaVuSans-36" x="640.927734"/>
      <use xlink:href="#DejaVuSans-2e" x="704.550781"/>
      <use xlink:href="#DejaVuSans-34" x="736.337891"/>
      <use xlink:href="#DejaVuSans-30" x="799.960938"/>
      <use xlink:href="#DejaVuSans-6b" x="863.583984"/>
      <use xlink:href="#DejaVuSans-66" x="921.494141"/>
      <use xlink:href="#DejaVuSans-74" x="954.949219"/>
      <use xlink:href="#DejaVuSans-2f" x="994.158203"/>
      <use xlink:href="#DejaVuSans-35" x="1027.849609"/>
      <use xlink:href="#DejaVuSans-6b" x="1091.472656"/>
      <use xlink:href="#DejaVuSans-6d" x="1149.382812"/>
     </g>
    </g>
    <g id="line2d_48">
     <path d="M 271.041875 46.23425 
L 279.041875 46.23425 
L 287.041875 46.23425 
" style="fill: none; stroke: #2ca02c; stroke-width: 1.5; stroke-linecap: square"/>
    </g>
    <g id="text_25">
     <!-- AniMAIRE, 16.40kft/5km -->
     <g transform="translate(293.441875 49.03425)scale(0.08 -0.08)">
      <use xlink:href="#DejaVuSans-41"/>
      <use xlink:href="#DejaVuSans-6e" x="68.408203"/>
      <use xlink:href="#DejaVuSans-69" x="131.787109"/>
      <use xlink:href="#DejaVuSans-4d" x="159.570312"/>
      <use xlink:href="#DejaVuSans-41" x="245.849609"/>
      <use xlink:href="#DejaVuSans-49" x="314.257812"/>
      <use xlink:href="#DejaVuSans-52" x="343.75"/>
      <use xlink:href="#DejaVuSans-45" x="413.232422"/>
      <use xlink:href="#DejaVuSans-2c" x="476.416016"/>
      <use xlink:href="#DejaVuSans-20" x="508.203125"/>
      <use xlink:href="#DejaVuSans-31" x="539.990234"/>
      <use xlink:href="#DejaVuSans-36" x="603.613281"/>
      <use xlink:href="#DejaVuSans-2e" x="667.236328"/>
      <use xlink:href="#DejaVuSans-34" x="699.023438"/>
      <use xlink:href="#DejaVuSans-30" x="762.646484"/>
      <use xlink:href="#DejaVuSans-6b" x="826.269531"/>
      <use xlink:href="#DejaVuSans-66" x="884.179688"/>
      <use xlink:href="#DejaVuSans-74" x="917.634766"/>
      <use xlink:href="#DejaVuSans-2f" x="956.84375"/>
      <use xlink:href="#DejaVuSans-35" x="990.535156"/>
      <use xlink:href="#DejaVuSans-6b" x="1054.158203"/>
      <use xlink:href="#DejaVuSans-6d" x="1112.068359"/>
     </g>
    </g>
    <g id="line2d_49">
     <path d="M 271.041875 57.97675 
L 279.041875 57.97675 
L 287.041875 57.97675 
" style="fill: none; stroke-dasharray: 5.55,2.4; stroke-dashoffset: 0; stroke: #d62728; stroke-width: 1.5"/>
    </g>
    <g id="text_26">
     <!-- WASAVIES, 6.56kft/2km -->
     <g transform="translate(293.441875 60.77675)scale(0.08 -0.08)">
      <use xlink:href="#DejaVuSans-57"/>
      <use xlink:href="#DejaVuSans-41" x="93.376953"/>
      <use xlink:href="#DejaVuSans-53" x="161.785156"/>
      <use xlink:href="#DejaVuSans-41" x="227.136719"/>
      <use xlink:href="#DejaVuSans-56" x="289.169922"/>
      <use xlink:href="#DejaVuSans-49" x="357.578125"/>
      <use xlink:href="#DejaVuSans-45" x="387.070312"/>
      <use xlink:href="#DejaVuSans-53" x="450.253906"/>
      <use xlink:href="#DejaVuSans-2c" x="513.730469"/>
      <use xlink:href="#DejaVuSans-20" x="545.517578"/>
      <use xlink:href="#DejaVuSans-36" x="577.304688"/>
      <use xlink:href="#DejaVuSans-2e" x="640.927734"/>
      <use xlink:href="#DejaVuSans-35" x="672.714844"/>
      <use xlink:href="#DejaVuSans-36" x="736.337891"/>
      <use xlink:href="#DejaVuSans-6b" x="799.960938"/>
      <use xlink:href="#DejaVuSans-66" x="857.871094"/>
      <use xlink:href="#DejaVuSans-74" x="891.326172"/>
      <use xlink:href="#DejaVuSans-2f" x="930.535156"/>
      <use xlink:href="#DejaVuSans-32" x="964.226562"/>
      <use xlink:href="#DejaVuSans-6b" x="1027.849609"/>
      <use xlink:href="#DejaVuSans-6d" x="1085.759766"/>
     </g>
    </g>
    <g id="line2d_50">
     <path d="M 271.041875 69.71925 
L 279.041875 69.71925 
L 287.041875 69.71925 
" style="fill: none; stroke: #d62728; stroke-width: 1.5; stroke-linecap: square"/>
    </g>
    <g id="text_27">
     <!-- AniMAIRE, 6.56kft/2km -->
     <g transform="translate(293.441875 72.51925)scale(0.08 -0.08)">
      <use xlink:href="#DejaVuSans-41"/>
      <use xlink:href="#DejaVuSans-6e" x="68.408203"/>
      <use xlink:href="#DejaVuSans-69" x="131.787109"/>
      <use xlink:href="#DejaVuSans-4d" x="159.570312"/>
      <use xlink:href="#DejaVuSans-41" x="245.849609"/>
      <use xlink:href="#DejaVuSans-49" x="314.257812"/>
      <use xlink:href="#DejaVuSans-52" x="343.75"/>
      <use xlink:href="#DejaVuSans-45" x="413.232422"/>
      <use xlink:href="#DejaVuSans-2c" x="476.416016"/>
      <use xlink:href="#DejaVuSans-20" x="508.203125"/>
      <use xlink:href="#DejaVuSans-36" x="539.990234"/>
      <use xlink:href="#DejaVuSans-2e" x="603.613281"/>
      <use xlink:href="#DejaVuSans-35" x="635.400391"/>
      <use xlink:href="#DejaVuSans-36" x="699.023438"/>
      <use xlink:href="#DejaVuSans-6b" x="762.646484"/>
      <use xlink:href="#DejaVuSans-66" x="820.556641"/>
      <use xlink:href="#DejaVuSans-74" x="854.011719"/>
      <use xlink:href="#DejaVuSans-2f" x="893.220703"/>
      <use xlink:href="#DejaVuSans-32" x="926.912109"/>
      <use xlink:href="#DejaVuSans-6b" x="990.535156"/>
      <use xlink:href="#DejaVuSans-6d" x="1048.445312"/>
     </g>
    </g>
    <g id="line2d_51">
     <path d="M 271.041875 81.46175 
L 279.041875 81.46175 
L 287.041875 81.46175 
" style="fill: none; stroke-dasharray: 5.55,2.4; stroke-dashoffset: 0; stroke: #9467bd; stroke-width: 1.5"/>
    </g>
    <g id="text_28">
     <!-- WASAVIES, 0.00kft/0km -->
     <g transform="translate(293.441875 84.26175)scale(0.08 -0.08)">
      <use xlink:href="#DejaVuSans-57"/>
      <use xlink:href="#DejaVuSans-41" x="93.376953"/>
      <use xlink:href="#DejaVuSans-53" x="161.785156"/>
      <use xlink:href="#DejaVuSans-41" x="227.136719"/>
      <use xlink:href="#DejaVuSans-56" x="289.169922"/>
      <use xlink:href="#DejaVuSans-49" x="357.578125"/>
      <use xlink:href="#DejaVuSans-45" x="387.070312"/>
      <use xlink:href="#DejaVuSans-53" x="450.253906"/>
      <use xlink:href="#DejaVuSans-2c" x="513.730469"/>
      <use xlink:href="#DejaVuSans-20" x="545.517578"/>
      <use xlink:href="#DejaVuSans-30" x="577.304688"/>
      <use xlink:href="#DejaVuSans-2e" x="640.927734"/>
      <use xlink:href="#DejaVuSans-30" x="672.714844"/>
      <use xlink:href="#DejaVuSans-30" x="736.337891"/>
      <use xlink:href="#DejaVuSans-6b" x="799.960938"/>
      <use xlink:href="#DejaVuSans-66" x="857.871094"/>
      <use xlink:href="#DejaVuSans-74" x="891.326172"/>
      <use xlink:href="#DejaVuSans-2f" x="930.535156"/>
      <use xlink:href="#DejaVuSans-30" x="964.226562"/>
      <use xlink:href="#DejaVuSans-6b" x="1027.849609"/>
      <use xlink:href="#DejaVuSans-6d" x="1085.759766"/>
     </g>
    </g>
    <g id="line2d_52">
     <path d="M 271.041875 93.20425 
L 279.041875 93.20425 
L 287.041875 93.20425 
" style="fill: none; stroke: #9467bd; stroke-width: 1.5; stroke-linecap: square"/>
    </g>
    <g id="text_29">
     <!-- AniMAIRE, 0.00kft/0km -->
     <g transform="translate(293.441875 96.00425)scale(0.08 -0.08)">
      <use xlink:href="#DejaVuSans-41"/>
      <use xlink:href="#DejaVuSans-6e" x="68.408203"/>
      <use xlink:href="#DejaVuSans-69" x="131.787109"/>
      <use xlink:href="#DejaVuSans-4d" x="159.570312"/>
      <use xlink:href="#DejaVuSans-41" x="245.849609"/>
      <use xlink:href="#DejaVuSans-49" x="314.257812"/>
      <use xlink:href="#DejaVuSans-52" x="343.75"/>
      <use xlink:href="#DejaVuSans-45" x="413.232422"/>
      <use xlink:href="#DejaVuSans-2c" x="476.416016"/>
      <use xlink:href="#DejaVuSans-20" x="508.203125"/>
      <use xlink:href="#DejaVuSans-30" x="539.990234"/>
      <use xlink:href="#DejaVuSans-2e" x="603.613281"/>
      <use xlink:href="#DejaVuSans-30" x="635.400391"/>
      <use xlink:href="#DejaVuSans-30" x="699.023438"/>
      <use xlink:href="#DejaVuSans-6b" x="762.646484"/>
      <use xlink:href="#DejaVuSans-66" x="820.556641"/>
      <use xlink:href="#DejaVuSans-74" x="854.011719"/>
      <use xlink:href="#DejaVuSans-2f" x="893.220703"/>
      <use xlink:href="#DejaVuSans-30" x="926.912109"/>
      <use xlink:href="#DejaVuSans-6b" x="990.535156"/>
      <use xlink:href="#DejaVuSans-6d" x="1048.445312"/>
     </g>
    </g>
   </g>
  </g>
 </g>
 <defs>
  <clipPath id="pb7cf8ee1d6">
   <rect x="62.598125" y="35.7555" width="334.8" height="195.84"/>
  </clipPath>
 </defs>
</svg>
